<svg width="327" height="682" viewBox="0 0 327 682" fill="none" xmlns="http://www.w3.org/2000/svg">
<path d="M147.72 591.544C149.224 589.708 150.588 588.764 151.375 582.312C152.529 573.062 151.48 552.046 150.326 501.969L194.912 512.67C194.912 512.67 187.044 547.535 183.879 563.376C182.603 569.775 181.116 578.255 181.151 579.427C181.042 580.003 180.983 580.588 180.976 581.175C181.396 590.722 168.947 595.163 160.834 601.895C153.969 607.842 146.597 613.177 138.803 617.841C132.823 621.216 120.427 622.09 118.713 618.226C128.574 609.973 140.01 600.863 147.72 591.544Z" fill="#B16668"/>
<path d="M101.753 629.398C101.228 629.398 100.704 635.256 103.676 637.581C107.173 640.257 116.999 644.453 129.676 642.18C142.352 639.907 149.084 635.641 153.98 631.112C158.876 626.583 165.747 620.219 171.465 618.663C176.71 617.229 182.48 614.519 184.124 612.77C185.767 611.022 185.155 603.678 185.155 603.678L101.753 629.398Z" fill="#0F0F0F"/>
<path d="M181.431 576.839C181.431 576.839 182.183 576.839 182.585 578.465C183.075 580.476 182.585 585.459 183.459 588.729C185.925 597.943 185.505 602.419 184.998 606.214C184.491 610.008 175.853 613.068 170.363 615.463C163.953 618.642 158.059 622.768 152.878 627.702C147.126 632.948 134.747 638.508 126.441 639.015C113.747 639.819 105.355 636.777 102.592 632.336C99.095 626.828 101.49 623.436 115.758 615.97C118.451 614.571 127.875 608.347 131.092 606.109C134.496 603.759 137.695 601.127 140.656 598.24C142.154 596.779 143.572 595.238 144.905 593.625C146.304 592.172 147.482 590.523 148.402 588.729C148.542 588.327 148.63 587.872 148.769 587.47C149.127 586.328 149.391 585.158 149.556 583.973C149.731 582.749 149.784 580.983 150.903 580.196C152.539 579.432 154.353 579.13 156.148 579.322C158.046 579.366 159.939 579.541 161.813 579.846C163.981 580.231 166.482 580.301 167.845 582.259C168.771 583.855 169.277 585.66 169.314 587.505C169.314 588.362 169.314 589.253 169.454 590.075C169.454 590.425 169.349 591.089 169.856 590.914C170.363 590.739 170.818 589.446 170.975 589.009C171.342 588.029 171.552 586.998 171.937 586.036C172.392 584.916 172.979 583.853 173.685 582.871C174.332 581.98 176.5 581.91 177.514 581.507C178.874 580.886 180.117 580.034 181.186 578.99L181.431 576.839Z" fill="black"/>
<path d="M113.433 617.264C131.879 617.631 138.226 628.717 139.345 635.71C135.236 637.487 130.878 638.62 126.424 639.068C113.73 639.872 104.813 636.847 102.05 632.406C98.8329 627.265 100.634 622.877 113.433 617.264Z" fill="#FAFAFA"/>
<path d="M141.006 616.145C141.11 616.147 141.213 616.128 141.309 616.089C141.405 616.049 141.492 615.991 141.566 615.918C141.732 615.751 141.826 615.524 141.826 615.288C141.826 615.052 141.732 614.826 141.566 614.659C139.317 612.545 136.641 610.937 133.718 609.945C130.795 608.953 127.694 608.599 124.623 608.906C124.497 608.911 124.373 608.943 124.26 608.999C124.148 609.055 124.048 609.135 123.968 609.232C123.888 609.33 123.83 609.443 123.797 609.565C123.764 609.686 123.757 609.814 123.777 609.938C123.797 610.063 123.843 610.182 123.912 610.287C123.982 610.392 124.072 610.482 124.179 610.55C124.285 610.617 124.405 610.662 124.529 610.68C124.654 610.698 124.781 610.689 124.903 610.655C127.68 610.416 130.477 610.758 133.114 611.662C135.752 612.565 138.172 614.009 140.219 615.9C140.321 616.001 140.446 616.076 140.583 616.119C140.72 616.162 140.865 616.17 141.006 616.145Z" fill="#F0F0F0"/>
<path d="M148.699 611.162C148.906 611.149 149.102 611.07 149.259 610.935C149.427 610.764 149.521 610.535 149.521 610.296C149.521 610.058 149.427 609.828 149.259 609.658C147.01 607.544 144.334 605.937 141.411 604.944C138.489 603.952 135.387 603.598 132.316 603.906C132.08 603.944 131.869 604.074 131.729 604.267C131.588 604.46 131.529 604.701 131.564 604.937C131.581 605.054 131.621 605.167 131.683 605.268C131.745 605.369 131.826 605.457 131.923 605.526C132.019 605.594 132.129 605.643 132.244 605.668C132.36 605.693 132.48 605.694 132.596 605.672C135.376 605.43 138.176 605.772 140.817 606.675C143.458 607.578 145.88 609.023 147.93 610.917C148.03 611.015 148.152 611.089 148.285 611.132C148.419 611.174 148.561 611.184 148.699 611.162Z" fill="#F0F0F0"/>
<path d="M155.781 605.532C155.989 605.528 156.189 605.447 156.34 605.304C156.508 605.134 156.602 604.905 156.602 604.666C156.602 604.427 156.508 604.198 156.34 604.028C154.088 601.919 151.412 600.315 148.49 599.323C145.568 598.331 142.468 597.974 139.398 598.276C139.162 598.314 138.951 598.444 138.81 598.637C138.67 598.83 138.61 599.071 138.646 599.307C138.685 599.543 138.814 599.754 139.007 599.895C139.201 600.035 139.441 600.094 139.677 600.059C142.457 599.822 145.256 600.165 147.896 601.068C150.536 601.971 152.959 603.414 155.012 605.304C155.111 605.404 155.233 605.476 155.367 605.516C155.502 605.556 155.644 605.561 155.781 605.532Z" fill="#F0F0F0"/>
<path d="M162.722 599.919C162.923 599.904 163.113 599.824 163.264 599.692C163.349 599.61 163.416 599.512 163.462 599.404C163.508 599.296 163.532 599.18 163.532 599.062C163.532 598.945 163.508 598.828 163.462 598.72C163.416 598.612 163.349 598.514 163.264 598.433C159.54 594.149 151.427 591.596 144.8 592.663C144.683 592.678 144.57 592.716 144.469 592.776C144.367 592.835 144.278 592.915 144.208 593.009C144.138 593.104 144.087 593.212 144.06 593.327C144.032 593.442 144.029 593.561 144.048 593.677C144.065 593.793 144.105 593.904 144.166 594.005C144.226 594.106 144.305 594.193 144.399 594.263C144.494 594.333 144.601 594.384 144.714 594.412C144.828 594.44 144.947 594.446 145.062 594.429C151.042 593.485 158.596 595.828 161.918 599.674C162.02 599.781 162.147 599.859 162.288 599.902C162.429 599.945 162.578 599.951 162.722 599.919Z" fill="#F0F0F0"/>
<path d="M291.358 512.477C291.078 549.335 290.519 573.517 291.358 589.411C291.603 594.324 293.998 632.476 293.299 642.739C292.232 658.161 272.719 658.178 270.743 649.244C268.768 640.309 262.683 597.366 261.809 593.45C258.172 577.311 245.897 518.265 245.897 518.265L291.358 512.477Z" fill="#B16668"/>
<path d="M264.676 655.556C265.323 664.473 266.792 670.365 270.027 675.558C273.261 680.751 279.259 682.325 285.291 680.804C291.323 679.283 299.016 674.981 300.642 667.271C302.269 659.56 303.23 654.244 301.744 645.992L264.676 655.556Z" fill="#0F0F0F"/>
<path d="M291.341 589.376C293.824 589.55 292.67 602.717 294.261 614.694C296.009 627.545 299.891 632.808 301.394 643.334C303.143 655.363 301.202 660.819 297.076 668.127C292.949 675.436 278.087 682.797 270.586 672.464C264.484 664.036 264.099 654.612 264.501 642.565C264.678 632.391 264.275 622.216 263.295 612.088C262.701 603.066 259.641 594.446 261.791 593.415C262.014 594.766 262.317 596.103 262.701 597.419C263.155 598.975 263.557 600.548 264.169 602.07C264.432 602.734 264.991 603.433 265.201 602.332C265.323 601.591 265.323 600.835 265.201 600.094C264.799 596.772 266.477 596.474 267.369 596.212C271.182 595.424 275.034 594.841 278.909 594.464C280.815 594.306 288.753 594.167 289.627 595.251C290.199 596.328 290.499 597.528 290.501 598.748C290.746 600.496 291.183 601.895 291.236 601.318C291.288 599.954 291.393 590.145 291.341 589.376Z" fill="black"/>
<path d="M302.181 650.31C302.72 656.752 301.169 663.196 297.758 668.687C293.631 676.031 277.563 683.409 270.062 673.058C266.337 667.918 265.271 661.798 264.694 655.573C268.995 647.443 295.082 643.491 302.181 650.31Z" fill="#FAFAFA"/>
<path d="M269.957 642.372L270.271 642.285C270.271 642.285 281.846 637.319 293.107 639.767C293.347 639.809 293.594 639.759 293.799 639.626C294.003 639.493 294.15 639.287 294.208 639.05C294.255 638.809 294.207 638.56 294.073 638.354C293.939 638.148 293.73 638.003 293.491 637.948C281.584 635.361 269.887 640.414 269.45 640.624C269.339 640.676 269.24 640.75 269.158 640.841C269.077 640.932 269.015 641.039 268.976 641.155C268.936 641.271 268.921 641.394 268.93 641.516C268.94 641.638 268.974 641.757 269.03 641.865C269.116 642.032 269.251 642.17 269.416 642.26C269.581 642.351 269.769 642.39 269.957 642.372Z" fill="#F0F0F0"/>
<path d="M292.425 630.797C292.603 630.774 292.772 630.701 292.911 630.587C293.05 630.472 293.154 630.321 293.212 630.15C293.279 629.918 293.255 629.67 293.144 629.455C293.034 629.24 292.845 629.076 292.617 628.996C281.374 625.342 269.048 631.199 268.593 631.444C268.485 631.501 268.389 631.579 268.311 631.673C268.233 631.768 268.174 631.876 268.138 631.994C268.103 632.111 268.09 632.233 268.102 632.355C268.114 632.477 268.15 632.595 268.208 632.703C268.333 632.912 268.532 633.066 268.766 633.135C268.999 633.203 269.25 633.18 269.467 633.07C269.572 633.07 281.584 627.353 292.04 630.745C292.164 630.788 292.294 630.806 292.425 630.797Z" fill="#F0F0F0"/>
<path d="M291.918 622.335C292.092 622.312 292.256 622.24 292.392 622.129C292.528 622.018 292.63 621.871 292.687 621.705C292.728 621.592 292.747 621.471 292.741 621.35C292.735 621.229 292.705 621.111 292.653 621.002C292.601 620.893 292.528 620.795 292.437 620.715C292.347 620.634 292.242 620.573 292.127 620.534C279.766 616.285 268.068 622.649 267.649 622.929C267.544 622.992 267.452 623.075 267.38 623.174C267.308 623.272 267.256 623.385 267.228 623.504C267.201 623.623 267.197 623.747 267.218 623.867C267.24 623.988 267.285 624.103 267.351 624.205C267.484 624.411 267.693 624.556 267.932 624.609C268.171 624.661 268.421 624.617 268.628 624.485C268.628 624.485 280.028 618.331 291.515 622.282C291.645 622.324 291.781 622.342 291.918 622.335Z" fill="#F0F0F0"/>
<path d="M291.201 613.994C291.372 613.976 291.534 613.911 291.67 613.806C291.806 613.701 291.91 613.561 291.97 613.4C292.012 613.285 292.03 613.163 292.025 613.041C292.019 612.919 291.99 612.8 291.938 612.689C291.886 612.579 291.812 612.479 291.722 612.397C291.632 612.315 291.526 612.252 291.411 612.211C279.836 608.049 267.247 614.571 266.775 614.869C266.566 614.994 266.416 615.197 266.357 615.433C266.298 615.669 266.335 615.919 266.46 616.128C266.585 616.336 266.788 616.487 267.024 616.546C267.26 616.605 267.51 616.567 267.719 616.442C267.824 616.442 279.958 610.078 290.781 613.942C290.915 613.993 291.059 614.011 291.201 613.994Z" fill="#0F0F0F"/>
<path d="M262.596 237.459C274.205 253.195 287.074 272.428 286.322 322.417C285.291 386.254 284.119 415.087 285.011 422.186C285.903 429.285 289.819 429.529 293.491 464.639C296.656 494.835 292.757 555.001 292.757 555.001C292.757 555.001 288.578 560.246 275.132 561.4C260.795 562.624 253.154 558.078 253.154 558.078C253.154 558.078 239.166 488.995 234.148 467.891C228.5 443.832 217.17 375.519 217.17 375.519L204.581 425.281C206.967 440.082 206.831 455.181 204.179 469.937C198.251 500.395 189.911 541.118 189.911 541.118C183.84 542.82 177.537 543.546 171.237 543.268C154.714 542.604 150.728 533.599 150.728 533.599C150.728 533.599 147.738 449.672 147.073 414.702C146.356 377.564 146.863 294.651 154.295 237.459H262.596Z" fill="black"/>
<path d="M197.167 302.065L217.222 375.501L204.633 425.263L212.502 375.187L194.737 313.605C186.169 312.364 166.167 304.076 159.592 290.21C173.72 302.537 197.167 302.065 197.167 302.065Z" fill="#0F0F0F"/>
<path d="M251.86 477.385C255.532 495.482 259.903 522.654 263.277 540.82C258.487 522.968 252.786 496.094 249.027 478.032C238.414 427.186 233.955 386.989 231.542 368.665C229.129 350.341 227.224 331.947 225.528 313.57C228.657 331.772 231.525 350.026 234.392 368.245C237.26 386.464 240.879 423.847 251.86 477.385Z" fill="#0F0F0F"/>
<path d="M157.739 392.112C157.162 400.12 156.498 408.145 156.428 416.066C156.358 423.987 156.673 432.082 156.882 440.108L157.494 464.219C157.914 480.282 158.153 496.368 158.211 512.477C156.719 496.438 155.513 480.387 154.592 464.324C153.683 448.256 152.843 432.24 152.704 416.031C153.158 399.77 154.942 383.824 156.778 367.808C158.613 351.792 160.991 335.881 163.771 320.039L159.575 368.105C159.016 376.113 158.299 384.104 157.739 392.112Z" fill="#0F0F0F"/>
<path d="M11.0064 152.64C12.6325 149.37 14.6782 151.486 15.7797 151.241C15.7797 151.241 11.0588 149.877 13.8389 144.247C15.5874 140.75 19.4516 143.792 19.1718 143.233C19.0494 142.988 12.3527 138.582 5.18394 133.616C-1.60017 128.913 -0.0615311 127.217 0.725281 126.028C1.5121 124.839 2.24646 122.968 7.71922 126.028C13.192 129.088 27.5645 137.148 31.0615 139.002C34.5584 140.855 36.6216 141.449 35.1879 137.008C33.7541 132.567 32.5652 128.913 33.2121 125.416C34.3136 119.576 38.0204 119.419 39.2793 122.531C41.0278 126.937 44.0702 131.466 47.6721 138.267C49.5429 141.764 51.169 145.261 52.5853 147.482C55.785 152.377 61.3277 154.983 70.8744 157.64C79.0295 160.248 87.3393 162.344 95.7553 163.917C111.999 167.274 127.228 190.984 119.412 200.915C114.919 206.65 102.889 209.85 86.6807 202.664C72.9376 196.614 60.9605 186.018 55.5052 183.256C50.05 180.493 47.3224 178.395 42.3217 178.535C35.5376 178.727 31.3062 176.961 25.5712 174.024C22.8261 172.607 17.6856 170.072 13.9264 167.764C10.1671 165.456 8.4536 163.183 9.43275 160.508C10.7616 156.871 13.4018 159.266 13.4717 158.759C13.5417 158.252 8.71586 157.291 11.0064 152.64Z" fill="#B16668"/>
<path d="M25.5712 167.03C25.5712 165.176 23.2282 163.41 23.2282 163.41C24.2549 163.906 25.415 164.053 26.5329 163.83C27.3655 163.546 28.0777 162.989 28.5538 162.25C29.0299 161.51 29.242 160.631 29.1556 159.756C28.8234 158.252 26.6378 157.046 26.6378 157.046C27.668 157.221 28.7255 157.137 29.7151 156.801C30.1243 156.636 30.4958 156.389 30.8071 156.076C31.1184 155.763 31.3632 155.39 31.5266 154.98C31.69 154.57 31.7686 154.131 31.7578 153.69C31.747 153.249 31.6469 152.814 31.4636 152.412C30.8691 150.332 26.0083 147.342 21.3399 144.789C23.4538 145.274 25.4899 146.051 27.3896 147.097C29.5279 147.955 31.3861 149.39 32.7575 151.241C32.8792 149.062 33.5401 146.947 34.6808 145.086C33.3694 151.014 37.0587 162.309 42.7588 167.659C40.3511 166.598 38.2273 164.984 36.5596 162.949C34.8918 160.913 33.727 158.514 33.1596 155.944C32.8451 156.587 32.3412 157.117 31.716 157.464C31.0907 157.811 30.374 157.958 29.6626 157.885C30.2345 158.551 30.5772 159.383 30.6401 160.258C30.7031 161.133 30.483 162.005 30.0123 162.746C29.7128 163.475 29.2046 164.1 28.5514 164.542C27.8981 164.983 27.129 165.222 26.3405 165.229C26.3405 165.229 27.7393 166.365 26.4804 168.586C25.2215 170.806 22.9834 170.737 20.7803 169.583C21.2595 169.785 21.7778 169.877 22.2973 169.854C22.8167 169.83 23.3244 169.691 23.7834 169.446C24.2423 169.202 24.641 168.858 24.9502 168.44C25.2595 168.022 25.4716 167.54 25.5712 167.03Z" fill="#9A4A4D"/>
<path d="M198.269 122.006C188.478 122.181 182.043 119.541 174.088 121.08C162.513 123.3 159.872 127.706 150.518 137.62C138.663 150.192 121.213 167.956 121.213 167.956C121.213 167.956 105.057 163.305 91.769 159.616C78.4805 155.927 68.0246 151.643 66.7831 156.364L73.0252 158.217C73.0252 158.217 80.4563 163.463 77.886 177.661C75.7354 189.55 66.1362 190.372 66.1362 190.372L60.1214 186.315C59.6323 188.251 59.7876 190.294 60.5638 192.133C61.3399 193.973 62.6947 195.509 64.4227 196.509C70.5948 200.198 105.774 211.808 117.227 215.061C128.679 218.313 131.722 216.145 144.293 206.65C156.865 197.156 190.383 167.904 190.383 167.904L198.269 122.006Z" fill="#E0E0E0"/>
<path opacity="0.1" d="M121.213 167.904C129.361 170.439 137.282 179.531 137.771 186.525C141.443 172.537 124.361 164.704 124.361 164.704L121.213 167.904Z" fill="black"/>
<path d="M157.634 245.327C152.389 239.627 154.032 230.535 157.634 221.95C158.124 208.923 157.634 196.509 157.634 196.509L257.665 212.106C254.5 226.093 255.007 223.82 262.631 237.459C241.596 266.116 167.723 260.014 157.634 245.327Z" fill="#B16668"/>
<path d="M157.075 219.1C155.921 214.221 155.956 199.097 156.935 191.124C152.668 184.654 147.947 175.387 152.161 164.704C155.955 155.018 160.904 148.968 174.682 137.603C182.033 131.685 189.931 126.48 198.269 122.059L222.415 120.573L246.02 122.443C246.02 122.443 248.38 123.195 256.511 126.29C261.651 128.011 266.664 130.091 271.513 132.515C276.041 135.067 279.591 157.431 272.212 174.321C266.005 188.519 259.011 209.675 256.965 222.107C235.459 236.847 170.013 235.763 157.075 219.1Z" fill="black"/>
<path d="M182.043 192.89C188.005 201.125 211.942 213.364 230.388 200.251C224.688 217.106 186.344 214.781 182.043 192.89Z" fill="#37474F"/>
<path d="M189.596 54.9869C187.972 56.4778 185.914 57.4092 183.722 57.6446C181.518 57.8545 178.966 57.4523 177.34 58.9735C176.902 59.3834 176.581 59.9019 176.409 60.4762C176.237 61.0505 176.221 61.6602 176.361 62.243C176.502 62.8258 176.794 63.361 177.208 63.7941C177.623 64.2272 178.145 64.5427 178.721 64.7085C177.458 64.6419 176.236 64.2339 175.187 63.5281C174.137 62.8223 173.299 61.845 172.76 60.7004C172.222 59.5557 172.004 58.2865 172.13 57.028C172.256 55.7694 172.721 54.5685 173.475 53.5532C174.402 52.3118 175.714 51.4025 176.5 50.0562C176.895 49.3901 177.137 48.6448 177.21 47.8739C177.282 47.103 177.183 46.3257 176.92 45.5976C176.098 43.3595 174.525 42.3279 173.598 40.1423C172.807 38.4752 172.458 36.6328 172.584 34.792C172.839 32.5702 173.684 30.4573 175.032 28.6723C178.091 24.948 184.718 23.4268 189.317 22.8673C188.425 19.8249 188.687 14.4046 195.192 9.92853C197.833 8.24644 200.899 7.35292 204.03 7.35292C207.161 7.35292 210.228 8.24644 212.869 9.92853C213.031 7.99041 213.742 6.13858 214.918 4.59016C216.095 3.04173 217.689 1.86091 219.513 1.18612C223.19 -0.114647 227.16 -0.351018 230.966 0.504202C237.138 1.55329 243.799 4.61314 245.705 10.5755C249.181 9.62757 252.855 9.68813 256.298 10.7501C259.741 11.812 262.81 13.8315 265.148 16.5728C267.361 19.4335 268.641 22.9059 268.813 26.5187C268.985 30.1314 268.041 33.7096 266.11 36.7677C278.682 44.1988 279.294 60.4072 275.36 71.5626C271.863 81.1967 265.009 84.9384 256.948 93.8207C255.409 95.5692 247.768 103.298 247.541 105.571L189.596 54.9869Z" fill="black"/>
<path d="M210.071 27.4309C236.299 21.7833 262.403 44.0939 262.875 74.0629C266.11 56.0885 263.173 45.4228 253.836 35.8061C238.851 20.3845 218.884 21.4511 210.071 27.4309Z" fill="#BA68C8"/>
<path d="M197.71 38.1665C197.71 38.1665 188.233 45.8774 186.659 75.9338C185.523 97.5101 189.282 105.658 195.734 109.435C199.58 111.655 204.599 112.617 211.348 112.932L210.858 122.391C210.858 122.391 187.813 143.618 205.106 147.254C214.303 149.178 223.744 145.226 232.12 140.82C237.743 137.516 242.407 132.804 245.653 127.147L247.699 101.182C247.699 101.182 253.504 106.427 260.952 100.885C267.649 95.9189 269.695 86.7219 265.691 80.9344C261.687 75.147 254.588 75.8813 249.867 82.2108C249.867 82.2108 242.733 84.1167 244.359 74.9721C244.359 74.9721 239.114 72.4368 237.155 62.96C236.141 58.1167 241.387 48.8498 237.855 45.0731C232.399 40.7193 221.629 46.8215 211.627 46.262C206.592 46.0347 201.329 39.1807 197.71 38.1665Z" fill="#B16668"/>
<path d="M218.429 87.1241L208.497 92.3695C208.81 93.0402 209.256 93.6406 209.807 94.1348C210.358 94.629 211.003 95.0066 211.704 95.2451C212.404 95.4836 213.146 95.5779 213.884 95.5224C214.622 95.4669 215.341 95.2628 215.998 94.9223C217.339 94.1948 218.343 92.973 218.797 91.5167C219.251 90.0604 219.119 88.4844 218.429 87.1241Z" fill="#9A4A4D"/>
<path d="M217.765 90.0615C217.133 90.1138 216.518 90.292 215.956 90.5856C215.393 90.8792 214.896 91.2822 214.492 91.7709C214.088 92.2597 213.786 92.8243 213.603 93.4315C213.42 94.0388 213.361 94.6764 213.428 95.3069C213.42 95.3942 213.42 95.482 213.428 95.5692C214.305 95.5937 215.173 95.3888 215.946 94.9747C216.813 94.5101 217.544 93.8299 218.071 92.9999C218.598 92.1699 218.902 91.2181 218.954 90.2363C218.566 90.1294 218.167 90.0707 217.765 90.0615Z" fill="#F28F8F"/>
<path d="M193.373 59.9352L200.665 57.4523C200.526 56.9681 200.29 56.5172 199.972 56.1267C199.653 55.7363 199.259 55.4144 198.813 55.1807C198.367 54.947 197.878 54.8062 197.376 54.7669C196.873 54.7276 196.368 54.7905 195.891 54.952C194.913 55.3023 194.107 56.0144 193.639 56.9415C193.17 57.8686 193.075 58.9401 193.373 59.9352Z" fill="#263238"/>
<path d="M222.206 56.8578L230.004 62.8551C230.421 62.3677 230.735 61.8002 230.926 61.1875C231.116 60.5747 231.18 59.9295 231.113 59.2913C231.046 58.6531 230.849 58.0353 230.535 57.4756C230.221 56.9159 229.797 56.4261 229.287 56.036C228.22 55.2557 226.898 54.9068 225.585 55.0591C224.272 55.2115 223.065 55.8539 222.206 56.8578Z" fill="#263238"/>
<path d="M211.61 63.6769L206.854 85.9526L195.681 79.2559L211.61 63.6769Z" fill="#9A4A4D"/>
<path d="M211.348 112.967C229.077 112.565 237.872 108.84 241.596 102.895C241.596 102.895 239.446 110.834 233.518 113.509C226.421 116.391 218.794 117.744 211.138 117.478L211.348 112.967Z" fill="#9A4A4D"/>
<path d="M199.755 66.3871C199.755 67.3145 199.387 68.204 198.731 68.8598C198.075 69.5156 197.186 69.884 196.258 69.884C195.81 69.9028 195.363 69.8315 194.943 69.6745C194.523 69.5175 194.138 69.2779 193.812 68.9698C193.486 68.6618 193.225 68.2916 193.045 67.881C192.864 67.4704 192.768 67.0279 192.761 66.5794C192.761 65.652 193.13 64.7625 193.785 64.1067C194.441 63.4509 195.331 63.0824 196.258 63.0824C196.707 63.0588 197.157 63.1266 197.579 63.2818C198.001 63.437 198.388 63.6764 198.715 63.9854C199.042 64.2944 199.303 64.6666 199.481 65.0795C199.66 65.4923 199.753 65.9372 199.755 66.3871Z" fill="#263238"/>
<path d="M224.896 66.3871C224.896 67.3145 224.527 68.204 223.871 68.8598C223.215 69.5156 222.326 69.884 221.399 69.884C220.95 69.9028 220.503 69.8315 220.083 69.6745C219.663 69.5175 219.279 69.2779 218.953 68.9698C218.627 68.6618 218.366 68.2916 218.185 67.881C218.005 67.4704 217.908 67.0279 217.902 66.5794C217.902 65.652 218.27 64.7625 218.926 64.1067C219.582 63.4509 220.471 63.0824 221.399 63.0824C221.848 63.0588 222.297 63.1266 222.72 63.2818C223.142 63.437 223.528 63.6764 223.855 63.9854C224.182 64.2944 224.443 64.6666 224.622 65.0795C224.801 65.4923 224.894 65.9372 224.896 66.3871Z" fill="#263238"/>
<path d="M248.398 107.144C248.302 108.991 248.705 110.831 249.564 112.469C250.423 114.107 251.706 115.484 253.28 116.456C254.854 117.428 256.66 117.959 258.51 117.993C260.359 118.027 262.184 117.563 263.793 116.65C265.401 115.737 266.735 114.408 267.654 112.803C268.572 111.197 269.043 109.374 269.015 107.525C268.987 105.675 268.463 103.867 267.497 102.29C266.53 100.712 265.158 99.4238 263.522 98.5591C263.087 99.0555 262.62 99.5228 262.123 99.9579C263.527 100.581 264.733 101.576 265.612 102.834C266.491 104.093 267.01 105.568 267.112 107.1C267.214 108.632 266.896 110.163 266.191 111.527C265.487 112.891 264.423 114.037 263.115 114.841C261.807 115.645 260.304 116.076 258.769 116.088C257.234 116.1 255.724 115.692 254.404 114.909C253.083 114.126 252.002 112.997 251.276 111.644C250.55 110.291 250.208 108.765 250.286 107.232C250.37 105.717 250.855 104.253 251.691 102.987C252.526 101.721 253.683 100.7 255.042 100.028C255.156 99.979 255.258 99.9074 255.343 99.8176C255.429 99.7277 255.494 99.6214 255.537 99.5051C255.58 99.3889 255.598 99.2652 255.591 99.1416C255.584 99.018 255.552 98.8972 255.497 98.7864C255.444 98.6737 255.37 98.5725 255.278 98.4886C255.186 98.4047 255.079 98.3398 254.962 98.2975C254.845 98.2553 254.721 98.2366 254.596 98.2425C254.472 98.2483 254.35 98.2787 254.238 98.3318C252.571 99.1332 251.15 100.367 250.123 101.905C249.096 103.443 248.5 105.228 248.398 107.074V107.144Z" fill="#BA68C8"/>
<path d="M243.974 186.578C239.113 182.137 230.598 174.461 226.664 175.003C222.73 175.545 215.369 177.136 215.369 177.136L243.974 186.578Z" fill="#9A4A4D"/>
<path d="M249.762 189.795C231.455 179.794 234.026 179.636 221.594 176.804C209.162 173.971 200.105 172.363 193.199 170.841C186.292 169.32 183.792 168.866 183.687 171.891C183.582 174.915 188.023 177.713 193.199 179.864C198.374 182.014 207.344 185.721 207.344 185.721C207.344 185.721 203.724 189.76 201.574 192.365C201.024 192.943 200.613 193.639 200.373 194.4C200.133 195.161 200.069 195.967 200.187 196.756C200.305 197.545 200.602 198.296 201.054 198.954C201.507 199.611 202.103 200.156 202.798 200.548C201.049 203.276 200.857 207.839 204.319 209.063C204.738 213.889 206.417 214.973 209.127 215.568C211.79 216.328 214.612 216.328 217.275 215.568C218.788 214.848 220.234 213.993 221.594 213.015C225.773 216.407 232.539 222.089 242.576 219.537C248.328 217.876 266.163 230.535 266.163 230.535C276.654 225.989 276.898 215.078 272.842 201.562C272.859 201.615 257.91 194.254 249.762 189.795Z" fill="#B16668"/>
<path d="M203.357 182.958C206.067 183.64 207.798 182.958 210.683 184.322C210.057 184.293 209.433 184.403 208.855 184.645C208.278 184.887 207.761 185.254 207.344 185.721L194.737 180.476C194.737 180.476 200.664 182.294 203.357 182.958Z" fill="#9A4A4D"/>
<path d="M202.798 200.548C204.308 198.882 205.721 197.131 207.029 195.303C207.676 194.411 208.358 193.554 209.057 192.732C209.393 192.319 209.761 191.933 210.159 191.578C210.544 191.189 211.027 190.911 211.558 190.774C210.965 190.737 210.371 190.827 209.817 191.038C209.262 191.249 208.758 191.576 208.34 191.998C207.461 192.739 206.67 193.578 205.98 194.498C204.603 196.332 203.529 198.375 202.798 200.548Z" fill="#9A4A4D"/>
<path d="M204.319 209.063C204.836 208.079 205.457 207.153 206.172 206.301L208.218 203.678L210.229 201.02C210.874 200.116 211.581 199.257 212.344 198.45C211.256 198.861 210.271 199.506 209.459 200.338C207.791 201.907 206.392 203.738 205.315 205.759C204.712 206.76 204.37 207.896 204.319 209.063Z" fill="#9A4A4D"/>
<path d="M221.646 213.067C221.119 212.223 220.504 211.438 219.81 210.724C219.067 209.883 218.027 209.363 216.908 209.273C216.304 209.272 215.707 209.404 215.159 209.658C214.722 209.92 214.303 210.165 213.9 210.445C213.064 210.957 212.274 211.542 211.54 212.193C212.501 211.981 213.443 211.688 214.355 211.319C214.81 211.161 215.247 210.934 215.666 210.759C216.033 210.614 216.426 210.543 216.82 210.549C217.651 210.635 218.44 210.956 219.093 211.476C219.909 212.062 220.762 212.593 221.646 213.067Z" fill="#9A4A4D"/>
<path d="M215.369 206.65C215.216 206.916 215.135 207.218 215.135 207.525C215.135 207.832 215.216 208.133 215.369 208.399C215.671 208.908 216.076 209.349 216.558 209.693C217.44 210.372 218.461 210.85 219.548 211.091C219.022 210.12 218.273 209.287 217.362 208.661C216.943 208.346 216.523 208.067 216.191 207.787C215.818 207.491 215.533 207.098 215.369 206.65Z" fill="#9A4A4D"/>
<path d="M264.571 129.315C271.565 131.483 290.799 124.909 299.733 145.156C306.255 159.843 322.586 205.339 326.712 230.587C328.566 241.83 321.082 247.093 315.085 247.442C303.807 248.107 296.289 247.355 282.493 242.022C267.124 236.095 261.861 233.42 259.396 230.587C257.935 228.982 257.108 226.9 257.07 224.73L259.816 226.478C259.816 226.478 270.009 226.286 269.817 211.913C269.659 200.915 263.68 197.086 263.68 197.086L259.431 194.936C259.431 194.936 260.043 192.295 265.725 194.114C268.07 194.77 270.366 195.588 272.597 196.562L264.571 181.56C264.571 181.56 250.181 155.297 264.571 129.315Z" fill="#E0E0E0"/>
<path opacity="0.1" d="M272.597 196.509C284.084 200.006 291.83 202.174 300.573 208.749C308.056 214.291 311.728 218.575 315.277 226.618C314.77 220.358 311.326 213.33 304.944 206.703C300.573 202.157 290.064 196.876 283.542 194.778C277.021 192.68 269.555 190.862 269.555 190.862L272.597 196.509Z" fill="black"/>
</svg>
