<svg width="185" height="515" viewBox="0 0 185 515" fill="none" xmlns="http://www.w3.org/2000/svg">
<path d="M151.577 485.402L137.822 487.821L132.178 469.063L127.031 451.845L142.897 446.296L147.498 466.999L151.577 485.402Z" fill="#B16668"/>
<path d="M134.715 487.442C134.478 485.924 153.331 483.814 153.331 483.814C153.331 483.814 166.849 493.466 178.469 494.106C190.09 494.746 185.015 502.549 172.564 504.754L141.734 510.185C132.912 511.774 137.11 503.26 134.715 487.442Z" fill="black"/>
<path d="M162.581 486.991C160.299 486.891 158.038 486.517 155.845 485.877C155.791 485.89 155.734 485.89 155.679 485.877L155.537 485.734C155.537 485.734 155.537 485.735 155.537 485.616C155.513 485.539 155.513 485.456 155.537 485.379C155.537 485.165 156.367 480.636 158.691 479.071C159.039 478.848 159.43 478.701 159.839 478.64C160.248 478.579 160.665 478.604 161.063 478.715C161.964 478.952 162.486 479.403 162.557 480.067C162.628 480.731 161.513 482.272 160.185 483.339C161.556 482.857 163.032 482.759 164.454 483.055C164.722 483.14 164.968 483.281 165.177 483.469C165.386 483.657 165.551 483.888 165.663 484.146C165.875 484.448 165.988 484.808 165.988 485.177C165.988 485.546 165.875 485.906 165.663 486.209C165.232 486.547 164.735 486.791 164.205 486.925C163.674 487.06 163.121 487.083 162.581 486.991ZM157.482 485.26C160.446 485.948 164.027 486.375 164.786 485.497C164.786 485.497 165.047 485.189 164.786 484.478C164.722 484.348 164.632 484.233 164.522 484.139C164.412 484.045 164.284 483.975 164.146 483.932C161.844 483.742 159.535 484.202 157.482 485.26ZM160.233 479.521C159.862 479.52 159.5 479.627 159.189 479.829C157.941 481.071 157.112 482.671 156.818 484.406C159.403 482.865 161.798 480.944 161.703 480.114C161.703 479.829 161.205 479.663 160.92 479.592L160.233 479.521Z" fill="white"/>
<path opacity="0.2" d="M147.569 467.426L132.248 469.442L127.055 452.035L142.897 446.391L147.569 467.426Z" fill="black"/>
<path d="M59.7036 491.308H45.7116L43.435 471.837L41.348 453.98L57.9487 451.276L58.8736 472.478L59.7036 491.308Z" fill="#B16668"/>
<path d="M42.7234 490.406C42.7234 488.865 61.6956 490.074 61.6956 490.074C61.6956 490.074 73.3398 501.932 84.652 504.564C95.9641 507.197 89.6321 514.05 76.9919 514.05H45.6167C36.7472 514.027 42.344 506.414 42.7234 490.406Z" fill="black"/>
<path d="M71.7036 494.912C68.9691 494.584 66.3129 493.781 63.8538 492.541C63.783 492.515 63.7239 492.465 63.6878 492.398C63.6402 492.276 63.6402 492.141 63.6878 492.019C63.6878 491.829 65.3479 487.418 67.9091 486.351C68.282 486.184 68.6861 486.097 69.0949 486.097C69.5037 486.097 69.9078 486.184 70.2806 486.351C71.1344 486.778 71.5613 487.3 71.5138 487.94C71.5138 488.936 70.1146 489.956 68.5731 490.762C70.0046 490.517 71.4761 490.682 72.8182 491.236C73.0657 491.37 73.2836 491.552 73.4589 491.773C73.6341 491.993 73.763 492.246 73.8379 492.517C73.9757 492.861 74.0041 493.239 73.9192 493.6C73.8343 493.961 73.6403 494.286 73.3636 494.533C72.8669 494.838 72.2836 494.971 71.7036 494.912ZM65.5376 492.185C68.336 493.371 71.7984 494.414 72.6522 493.679C72.6522 493.679 72.9605 493.418 72.7708 492.683C72.7308 492.541 72.6617 492.408 72.5678 492.294C72.4739 492.179 72.3573 492.086 72.2253 492.019C70.0219 491.47 67.7111 491.528 65.5376 492.185ZM68.9289 486.991C68.6692 486.991 68.4117 487.039 68.17 487.134C66.6803 488.113 65.5421 489.542 64.921 491.213C67.7194 490.145 70.4229 488.675 70.4704 487.821C70.4704 487.561 70.0672 487.323 69.8064 487.181C69.5286 487.063 69.2308 486.998 68.9289 486.991Z" fill="white"/>
<path opacity="0.2" d="M58.8736 472.904L43.435 472.217L41.348 454.169L57.9487 451.371L58.8736 472.904Z" fill="black"/>
<path d="M148.54 454.398L126.016 457.555C103.28 411.063 87.1066 372.319 75.7028 340.123C69.5406 322.688 64.7477 307.326 61.0645 293.63L62.1034 344.21V459.125H39.2251C-16.4241 241.403 23.0049 191.637 23.0049 191.637L89.5856 182.299C92.2159 192.384 94.0769 202.594 95.1576 212.868L98.1561 230.942L124.127 341.188L148.54 454.398Z" fill="white"/>
<path opacity="0.6" d="M148.54 454.398L126.016 457.555C103.28 411.063 87.1066 372.319 75.7028 340.123C69.5406 322.688 64.7477 307.326 61.0645 293.63L62.1034 344.21V459.125H39.2251C-16.4241 241.403 23.0049 191.637 23.0049 191.637L89.5856 182.299C92.2159 192.384 94.0769 202.594 95.1576 212.868L98.1561 230.942L124.127 341.188L148.54 454.398Z" fill="white"/>
<path d="M122.691 457.703L150.77 448.383L150.391 460.335L127.173 467.735L122.691 457.703Z" fill="white"/>
<path d="M36.0834 458.984L65.3243 454.715L62.8816 466.407L38.7395 469.656L36.0834 458.984Z" fill="white"/>
<path d="M22.8026 183.631V193.615L90.9839 188.374V176.588L22.8026 183.631Z" fill="black"/>
<path d="M75.2322 178.983L60.3276 180.318L61.3414 191.633L76.246 190.297L75.2322 178.983Z" fill="white"/>
<path d="M45.6382 179.458L42.2513 179.631L43.1296 196.85L46.5165 196.677L45.6382 179.458Z" fill="white"/>
<path opacity="0.6" d="M45.6382 179.458L42.2513 179.631L43.1296 196.85L46.5165 196.677L45.6382 179.458Z" fill="white"/>
<path d="M87.3034 174.875L83.9165 175.048L84.7948 192.267L88.1816 192.094L87.3034 174.875Z" fill="white"/>
<path opacity="0.6" d="M87.3034 174.875L83.9165 175.048L84.7948 192.267L88.1816 192.094L87.3034 174.875Z" fill="white"/>
<path opacity="0.2" d="M75.7112 375.393C69.5216 354.049 64.7074 335.243 61.0078 318.476C61.3295 298.648 62.7705 278.854 65.324 259.188C65.324 259.188 75.1184 335.693 75.7112 375.393Z" fill="black"/>
<path d="M5.30109 43.3794C7.26945 56.4702 12.6291 70.8416 6.62913 83.6953C0.629181 96.5489 1.19837 122.233 29.2535 124.201C57.3086 126.169 74.3124 110.612 75.2847 92.9679C76.257 75.3238 67.6959 71.0314 68.597 60.0986C69.4982 49.1659 72.6049 37.7352 66.2255 21.2294C59.8461 4.72358 5.30109 43.3794 5.30109 43.3794Z" fill="black"/>
<path d="M15.7357 11.7196C15.7357 11.7196 21.4985 -6.13801 46.8501 2.23347C74.0277 11.1978 77.5376 54.1935 46.1623 65.8614C15.3325 77.2922 3.47491 51.0394 4.32866 33.0633C5.44328 10.4389 15.7357 11.7196 15.7357 11.7196Z" fill="black"/>
<path d="M90.6756 176.564L22.7077 184.153C22.7077 184.153 19.4588 163.853 14.3837 143.837C12.7711 137.339 10.7315 130.106 8.12287 121.711C6.71577 117.237 5.13475 112.414 3.37983 107.245C2.7158 105.229 2.00433 103.166 1.29288 101.031C1.01244 100.207 0.903134 99.3337 0.971611 98.4656C1.04009 97.5975 1.28492 96.7525 1.69115 95.9822C2.09737 95.2119 2.65643 94.5326 3.33416 93.9858C4.01189 93.439 4.79403 93.0362 5.63277 92.8019C7.34026 92.3276 9.09519 91.8533 10.8027 91.4265L11.3956 91.2605L16.2809 90.1221H16.4943C17.8698 89.8139 19.2216 89.5055 20.5734 89.2447L22.6129 88.8415H22.9923L27.2848 88.0826L28.0911 87.9641L33.3559 87.0866C35.0871 86.8257 36.842 86.5886 38.5969 86.3751L43.8854 85.7823H44.004C47.917 85.4028 51.8538 85.1182 55.8616 84.9522H57.7351C62.0987 84.9522 66.6995 84.9522 70.8971 85.2605H71.0631L74.9524 85.4976C77.5373 85.4976 79.814 85.7822 81.6401 85.9482L86.0037 86.304C86.0037 86.304 86.0037 86.304 86.2408 86.4463C86.7863 86.9917 88.4226 89.4581 89.5373 100.818C91.0313 113.719 93.474 128.754 90.6756 176.564Z" fill="black"/>
<path opacity="0.4" d="M91.7429 154.841C91.5531 161.22 91.2211 168.43 90.7705 176.612L22.8027 184.201C22.8027 184.201 19.5537 163.9 14.4787 143.885C12.866 137.387 10.8265 130.153 8.21784 121.758C6.81074 117.284 5.22972 112.462 3.4748 107.292C2.81077 105.276 2.0993 103.213 1.38785 101.079C1.10742 100.254 0.998104 99.3812 1.06658 98.5131C1.13506 97.645 1.37989 96.8 1.78612 96.0297C2.19234 95.2594 2.7514 94.5801 3.42913 94.0333C4.10686 93.4865 4.88901 93.0836 5.72774 92.8494C7.43523 92.3751 9.19016 91.9008 10.8977 91.4739L11.4905 91.308L16.3759 90.1696H16.5893C17.9648 89.8613 19.3166 89.553 20.6683 89.2921L22.7078 88.889H23.0873L27.3797 88.1301L28.186 88.0115L33.4508 87.1341C35.182 86.8732 36.937 86.636 38.6919 86.4226L43.9804 85.8297H44.099C45.8539 85.6637 47.6088 85.5214 49.3875 85.4028C51.1661 85.2843 52.4704 85.1894 54.1305 85.1183L55.9803 84.9997H57.8538H62.2174C65.2292 84.9997 68.2174 85.142 71.0158 85.2606H71.1818L75.0711 85.4977C77.6323 85.64 79.9327 85.806 81.7588 85.9483L86.1224 86.3277C86.2102 86.3586 86.2909 86.407 86.3595 86.47C86.905 87.0155 88.5413 89.4819 89.656 100.841C89.9405 104.114 90.3437 107.458 90.6994 111.442C91.9444 125.873 92.2929 140.367 91.7429 154.841Z" fill="white"/>
<path d="M49.7196 99.1814C33.9015 97.1418 29.1348 90.383 29.1348 90.383C39.19 80.8969 30.8423 64.486 30.8423 64.486L49.8144 68.0432C49.375 70.6938 49.1293 73.3728 49.0793 76.059C48.937 87.632 54.1543 87.7506 54.1543 87.7506C57.4745 94.0115 49.7196 99.1814 49.7196 99.1814Z" fill="#B16668"/>
<path opacity="0.2" d="M49.8855 68.0432C49.4461 70.6938 49.2003 73.3728 49.1503 76.059C36.273 76.059 30.8422 64.486 30.8422 64.486L49.8855 68.0432Z" fill="black"/>
<path d="M30.2019 79.474C30.2019 79.474 48.1306 84.217 59.0396 79.474C59.0396 79.474 60.6522 90.217 64.6364 93.0866C64.6364 93.0866 56.7392 102.241 48.51 103.094C40.2808 103.948 25.8383 92.8019 25.8383 92.8019C28.252 88.7328 29.7417 84.1828 30.2019 79.474Z" fill="black"/>
<path opacity="0.4" d="M64.5891 93.1814C64.5891 93.1814 63.6879 94.2248 62.2176 95.5529C59.2769 98.3276 53.9884 102.525 48.5576 103.071C44.4549 103.497 38.8106 100.96 34.1861 98.3276C31.3163 96.675 28.5521 94.8454 25.9095 92.8494C26.8177 91.2316 27.6102 89.5515 28.2811 87.8217C29.4227 85.1954 30.0738 82.3823 30.202 79.5214C36.8008 81.0816 43.589 81.6886 50.3599 81.3238C53.3715 81.1597 56.3357 80.5027 59.1346 79.3791C59.4182 81.1475 59.8062 82.8976 60.2966 84.6202C60.8013 86.4905 61.5008 88.3028 62.3836 90.0272C62.8804 91.2266 63.6331 92.3031 64.5891 93.1814Z" fill="white"/>
<path d="M61.8378 130.319C61.7441 130.341 61.6469 130.341 61.5532 130.319C44.8696 120.487 31.2669 106.186 22.2808 89.0312C22.2325 88.9594 22.2005 88.8779 22.187 88.7924C22.1736 88.7069 22.179 88.6195 22.2029 88.5363C22.2268 88.4531 22.2687 88.3762 22.3255 88.3109C22.3824 88.2456 22.4528 88.1936 22.5319 88.1584C22.611 88.1233 22.6968 88.1059 22.7834 88.1074C22.8699 88.109 22.955 88.1295 23.0328 88.1674C23.1106 88.2054 23.1791 88.26 23.2336 88.3272C23.288 88.3945 23.3271 88.4729 23.348 88.5569C32.1429 105.231 45.3404 119.175 61.5058 128.873C65.5706 114.508 65.6444 99.3079 61.7192 84.9047C61.6824 84.7508 61.7063 84.5887 61.7857 84.4518C61.8652 84.315 61.9942 84.2139 62.1461 84.1696C62.2224 84.1482 62.3023 84.1423 62.3809 84.1523C62.4595 84.1623 62.5353 84.1879 62.6039 84.2277C62.6724 84.2675 62.7323 84.3207 62.7799 84.384C62.8276 84.4473 62.862 84.5196 62.8813 84.5965C66.9394 99.4695 66.7752 115.179 62.407 129.964C62.3774 130.045 62.3302 130.12 62.2687 130.181C62.2072 130.243 62.133 130.29 62.0512 130.319H61.8378Z" fill="black"/>
<path d="M61.838 129.727C61.838 129.727 70.3755 138.383 63.8301 139.213C57.2847 140.043 61.838 129.727 61.838 129.727Z" fill="white"/>
<path d="M63.1188 139.782C62.581 139.823 62.0415 139.73 61.5488 139.51C61.0561 139.291 60.6258 138.952 60.2967 138.525C58.3995 135.869 61.0081 130.13 61.3164 129.489C61.3504 129.4 61.4082 129.322 61.4835 129.264C61.5588 129.205 61.6486 129.168 61.7433 129.157C61.8372 129.137 61.9349 129.141 62.0265 129.17C62.1181 129.199 62.2004 129.252 62.2651 129.323C62.8342 129.893 67.7907 135.015 66.7472 137.932C66.3915 138.952 65.4429 139.545 63.9014 139.734L63.1188 139.782ZM62.0279 130.794C61.2453 132.762 60.1544 136.296 61.2453 137.908C61.5619 138.242 61.9624 138.484 62.4047 138.609C62.847 138.734 63.3148 138.738 63.7591 138.62C64.8026 138.62 65.4429 138.169 65.6326 137.624C66.1543 136.035 63.9014 132.857 62.0279 130.794Z" fill="black"/>
<path opacity="0.2" d="M63.0238 95.3158C63.6222 94.6638 64.1471 93.9481 64.589 93.1814C64.589 93.1814 64.0198 94.0114 63.0238 95.3158Z" fill="black"/>
<path opacity="0.2" d="M90.8419 111.181C89.4901 109.877 88.6601 109.142 88.6601 109.142C88.6601 109.142 88.6601 128.114 87.1897 132.074C85.9091 135.537 62.3599 136.391 55.1979 136.557C59.9409 125.624 61.6721 109.094 62.1465 96.4541L63.0476 95.3395C62.7868 95.6241 62.4785 95.9323 62.1465 96.2406C62.1465 96.0272 62.1465 95.7901 62.1465 95.5766C62.1465 93.632 62.265 91.8296 62.265 90.1221C62.265 88.4147 62.265 86.2802 62.265 84.715H60.1544C59.664 82.9925 59.2759 81.2424 58.9923 79.474C56.1934 80.5976 53.2292 81.2545 50.2177 81.4186C50.028 82.6755 49.7671 83.9324 49.5062 85.1656C48.2906 90.5798 46.7059 95.9045 44.7632 101.102C41.0826 100.631 37.4792 99.6827 34.0439 98.2802C36.949 100.651 40.2158 102.541 43.7197 103.877C41.8225 108.739 40.3047 111.845 40.3047 111.845C21.8543 105.656 7.83858 100.486 7.83858 100.486L4.06787 108.881C4.87419 111.252 5.65679 113.624 6.43939 115.995L8.19432 121.616C10.0678 127.663 11.6805 133.118 12.9374 138.217C24.463 145.687 39.3798 152.446 48.5102 145.877C48.5102 145.877 60.771 156.762 91.743 154.817C92.3503 140.267 92.0493 125.694 90.8419 111.181Z" fill="black"/>
<path d="M63.5218 60.4544C63.3558 61.0235 63.2134 61.569 63.0237 62.0907C62.1308 65.4028 60.1254 68.3067 57.3444 70.3148C54.5633 72.3228 51.1759 73.3128 47.7511 73.1183C46.543 73.1989 45.3308 73.1989 44.1227 73.1183C43.3638 73.1183 42.5338 72.9286 41.7512 72.7863C13.2929 68.0432 11.8937 16.4152 39.3796 14.8974C55.9803 13.9725 61.7668 22.5574 63.9012 39.5612C65.0239 46.4924 64.8954 53.5686 63.5218 60.4544Z" fill="#B16668"/>
<path d="M53.1344 39.1107C54.5872 41.5141 56.3316 43.7285 58.328 45.7035C57.8787 46.4132 57.2427 46.9855 56.4898 47.3577C55.7368 47.73 54.896 47.8879 54.0593 47.8142L53.1344 39.1107Z" fill="#9A4A4D"/>
<path d="M42.9131 38.3044C42.9131 39.6561 42.3677 40.8182 41.4665 40.8893C40.5653 40.9605 39.7353 39.917 39.6404 38.5178C39.5456 37.1186 40.1859 36.004 41.087 35.9329C41.9882 35.8617 42.8183 36.9526 42.9131 38.3044Z" fill="black"/>
<path d="M40.7078 36.0751L43.5773 34.6759C43.5773 34.6759 42.2967 37.2846 40.7078 36.0751Z" fill="black"/>
<path d="M59.8461 36.6917C59.9647 38.0672 59.3007 39.2056 58.3995 39.2767C57.4983 39.3478 56.6683 38.3044 56.5734 36.9052C56.4785 35.506 57.1189 34.3913 58.02 34.3202C58.9212 34.249 59.6801 35.3399 59.8461 36.6917Z" fill="black"/>
<path d="M57.4742 34.4625L60.3438 33.0633C60.3438 33.0633 59.158 35.672 57.4742 34.4625Z" fill="black"/>
<path d="M35.0634 30.6443C34.8859 30.6324 34.7145 30.5752 34.5653 30.4783C34.3824 30.3412 34.2602 30.138 34.2247 29.9121C34.1893 29.6862 34.2434 29.4554 34.3756 29.2689C35.3365 28.1611 36.5412 27.2911 37.8949 26.7274C39.2487 26.1637 40.7148 25.9215 42.1779 26.0198C42.4066 26.0381 42.6189 26.1451 42.7696 26.3179C42.9203 26.4908 42.9974 26.7158 42.9843 26.9448C42.9753 27.057 42.9442 27.1664 42.8928 27.2666C42.8414 27.3668 42.7707 27.4558 42.6847 27.5285C42.5987 27.6013 42.4992 27.6563 42.3919 27.6904C42.2846 27.7246 42.1716 27.7371 42.0594 27.7273C40.8868 27.6552 39.713 27.848 38.625 28.2913C37.5371 28.7347 36.563 29.4173 35.7748 30.2886C35.6914 30.3984 35.5838 30.4875 35.4605 30.5492C35.3371 30.6109 35.2013 30.6434 35.0634 30.6443Z" fill="black"/>
<path d="M60.7945 27.3716C60.6431 27.3803 60.493 27.3386 60.3677 27.2531C59.5176 26.6621 58.5454 26.27 57.5232 26.1058C56.501 25.9416 55.455 26.0095 54.4626 26.3045C54.255 26.3957 54.0197 26.4007 53.8085 26.3184C53.5972 26.2361 53.4273 26.0733 53.3361 25.8657C53.2449 25.6582 53.2399 25.4229 53.3222 25.2116C53.4045 25.0004 53.5673 24.8304 53.7749 24.7392C55.0126 24.3278 56.3286 24.2079 57.6203 24.3889C58.912 24.5699 60.1445 25.0469 61.2214 25.7827C61.32 25.8368 61.4066 25.9103 61.4759 25.9988C61.5452 26.0873 61.5958 26.189 61.6246 26.2977C61.6535 26.4063 61.6599 26.5197 61.6436 26.631C61.6273 26.7422 61.5886 26.849 61.5297 26.9448C61.4591 27.0773 61.3528 27.1875 61.223 27.263C61.0931 27.3384 60.9447 27.376 60.7945 27.3716Z" fill="black"/>
<path d="M22.779 43.6878C22.779 43.6878 29.775 29.6483 28.0438 19.2136C28.0438 19.2136 60.1305 4.01216 63.6167 37.2135C63.6167 37.2135 65.2056 7.47461 36.6999 8.37579C8.19421 9.27697 10.6132 50.9209 25.9806 62.5177C25.9332 62.5177 18.4629 52.4624 22.779 43.6878Z" fill="black"/>
<path d="M25.6722 47.0316C25.4072 45.1245 24.3975 43.4001 22.8642 42.2356C21.3308 41.0712 19.3986 40.5615 17.4904 40.8182C12.3917 41.6482 10.5182 52.3201 23.4193 54.1699C25.2928 54.4307 26.2176 52.5809 25.6722 47.0316Z" fill="#B16668"/>
<path d="M53.1347 57.158C51.271 57.1188 49.4647 56.5057 47.9623 55.4022C46.4599 54.2988 45.3344 52.7587 44.7395 50.992C44.7035 50.8412 44.728 50.6822 44.8078 50.5492C44.8876 50.4162 45.0163 50.3198 45.1664 50.2806C45.2412 50.2594 45.3195 50.2537 45.3966 50.2639C45.4736 50.2742 45.5478 50.3001 45.6144 50.3401C45.6811 50.3801 45.7389 50.4333 45.7842 50.4965C45.8295 50.5597 45.8613 50.6315 45.8778 50.7074C46.4061 52.2436 47.4007 53.5765 48.7229 54.5203C50.045 55.4641 51.6288 55.9716 53.2533 55.9722C53.3312 55.9782 53.4072 55.9996 53.4769 56.035C53.5465 56.0705 53.6085 56.1194 53.6592 56.1789C53.7099 56.2384 53.7483 56.3073 53.7723 56.3818C53.7962 56.4562 53.8052 56.5346 53.7987 56.6125C53.7754 56.7696 53.6945 56.9124 53.5718 57.0132C53.4491 57.114 53.2933 57.1656 53.1347 57.158Z" fill="black"/>
<path opacity="0.1" d="M63.024 62.0908C62.1311 65.4028 60.1257 68.3067 57.3446 70.3148C54.5635 72.3229 51.1761 73.3128 47.7513 73.1183C51.3086 67.2844 58.9212 63.3951 63.024 62.0908Z" fill="black"/>
<path d="M44.0278 47.245C42.5634 47.245 41.1319 46.8105 39.9146 45.9964C38.6973 45.1823 37.7489 44.0253 37.1896 42.6719C36.6303 41.3185 36.4852 39.8296 36.7726 38.3936C37.06 36.9577 37.767 35.6394 38.8042 34.6055C39.8414 33.5717 41.162 32.8688 42.5989 32.586C44.0357 32.3032 45.5242 32.4531 46.8758 33.0168C48.2274 33.5804 49.3813 34.5325 50.1915 35.7524C51.0016 36.9723 51.4316 38.4052 51.4269 39.8696C51.4206 41.8279 50.6383 43.7038 49.2514 45.0863C47.8645 46.4687 45.9861 47.2451 44.0278 47.245ZM44.0278 33.6562C42.7989 33.6562 41.5976 34.0206 40.5758 34.7034C39.554 35.3861 38.7576 36.3565 38.2874 37.4918C37.8171 38.6272 37.694 39.8765 37.9338 41.0818C38.1735 42.2871 38.7653 43.3942 39.6343 44.2631C40.5032 45.1321 41.6103 45.7239 42.8156 45.9636C44.0209 46.2034 45.2702 46.0803 46.4055 45.61C47.5409 45.1398 48.5113 44.3434 49.194 43.3216C49.8768 42.2998 50.2412 41.0985 50.2412 39.8696C50.2412 38.2217 49.5865 36.6413 48.4213 35.4761C47.2561 34.3108 45.6757 33.6562 44.0278 33.6562Z" fill="black"/>
<path d="M61.8382 44.5177C60.3805 44.513 58.9569 44.0765 57.7471 43.2633C56.5373 42.45 55.5957 41.2965 55.0411 39.9484C54.4865 38.6003 54.3438 37.1181 54.6311 35.6889C54.9183 34.2598 55.6226 32.9479 56.6551 31.9188C57.6875 30.8897 59.0017 30.1896 60.4317 29.9069C61.8617 29.6242 63.3435 29.7717 64.6898 30.3306C66.0361 30.8895 67.1866 31.8348 67.996 33.0472C68.8053 34.2596 69.2373 35.6846 69.2373 37.1423C69.2373 38.1128 69.0458 39.0739 68.6736 39.9702C68.3015 40.8666 67.7561 41.6807 67.0687 42.3659C66.3813 43.0511 65.5655 43.5939 64.6679 43.9631C63.7704 44.3324 62.8087 44.5209 61.8382 44.5177ZM61.8382 30.9526C60.615 30.9573 59.4206 31.3243 58.4059 32.0073C57.3911 32.6902 56.6015 33.6586 56.1366 34.79C55.6718 35.9214 55.5526 37.1652 55.7941 38.3643C56.0356 39.5634 56.6269 40.6641 57.4935 41.5274C58.3601 42.3907 59.463 42.9778 60.663 43.2147C61.8631 43.4516 63.1064 43.3277 64.236 42.8585C65.3657 42.3893 66.3309 41.596 67.01 40.5786C67.6891 39.5613 68.0516 38.3655 68.0516 37.1423C68.0516 36.3275 67.8907 35.5206 67.5782 34.7681C67.2656 34.0156 66.8076 33.3322 66.2303 32.7571C65.653 32.1821 64.9678 31.7266 64.2141 31.417C63.4604 31.1073 62.653 30.9495 61.8382 30.9526Z" fill="black"/>
<path d="M50.668 39.0159C50.5212 39.016 50.3789 38.9658 50.2648 38.8736C50.1547 38.7588 50.0931 38.6058 50.0931 38.4467C50.0931 38.2876 50.1547 38.1346 50.2648 38.0198C51.1265 37.0727 52.3102 36.4808 53.5849 36.3597C53.9793 36.3841 54.3632 36.497 54.7081 36.6899C55.0529 36.8829 55.3499 37.151 55.577 37.4744C55.6592 37.5981 55.692 37.7481 55.6689 37.8948C55.6458 38.0416 55.5684 38.1743 55.4522 38.2667C55.3359 38.3591 55.1892 38.4045 55.041 38.3939C54.8928 38.3833 54.7541 38.3176 54.6521 38.2096C54.5282 38.0222 54.3636 37.8652 54.1706 37.7502C53.9777 37.6353 53.7612 37.5653 53.5375 37.5455C52.6265 37.6967 51.792 38.1473 51.166 38.8261C51.1047 38.896 51.0274 38.9498 50.9406 38.9829C50.8537 39.016 50.7602 39.0273 50.668 39.0159Z" fill="black"/>
<path d="M22.305 41.4822C22.158 41.4824 22.0168 41.4256 21.9107 41.324C21.8046 41.2223 21.7419 41.0836 21.7358 40.9368C21.7293 40.8589 21.7383 40.7804 21.7623 40.706C21.7862 40.6316 21.8246 40.5627 21.8753 40.5032C21.926 40.4436 21.988 40.3948 22.0576 40.3593C22.1273 40.3238 22.2033 40.3024 22.2813 40.2965L37.1981 39.2767C37.2767 39.2668 37.3564 39.2733 37.4323 39.2959C37.5081 39.3186 37.5784 39.3568 37.6387 39.4081C37.699 39.4595 37.7479 39.5228 37.7823 39.5941C37.8166 39.6654 37.8358 39.7431 37.8384 39.8222C37.8455 39.9781 37.7931 40.1309 37.6919 40.2498C37.5906 40.3686 37.4481 40.4446 37.293 40.4625L22.3524 41.4822H22.305Z" fill="black"/>
<path d="M48.51 92.3277L50.8815 79.5927C50.8815 79.5927 49.2215 79.5926 49.6483 76.0591C50.0752 72.5255 58.7076 63.6086 62.3834 62.5177C66.0593 61.4268 69.2134 75.2528 69.498 76.0591C69.7826 76.8654 61.3162 84.312 58.9684 83.4582L56.7629 94.6755L48.51 92.3277Z" fill="#B16668"/>
<path d="M0.866104 96.1221C-6.55676 114.359 36.1307 138.24 46.1385 139.118C56.1463 139.995 60.3676 86.6123 60.3676 86.6123L49.1029 84.6913C49.1029 84.6913 44.8816 123.442 40.6365 121.118C36.3915 118.794 6.39175 82.7467 0.866104 96.1221Z" fill="black"/>
<path opacity="0.4" d="M60.4388 86.6123C60.4388 86.6123 60.3203 87.9641 60.1068 90.2882C59.9645 91.4976 59.8459 92.9917 59.6562 94.6992C59.2768 98.0431 58.8025 102.146 58.1622 106.557C57.925 108.051 57.7116 109.569 57.4507 111.086C56.6444 115.972 55.6958 120.928 54.5575 125.316C54.1069 127.023 53.6088 128.636 53.0871 130.059C51.2136 135.655 48.9132 139.402 46.1623 139.142C45.1047 139.04 44.0623 138.817 43.0556 138.478C41.5064 138.014 39.986 137.46 38.5022 136.817C34.5934 135.13 30.7989 133.189 27.1427 131.007L23.3245 128.636C20.3908 126.744 17.557 124.702 14.8344 122.517C13.6012 121.545 12.4629 120.525 11.3246 119.529C8.69551 117.158 6.31196 114.528 4.21002 111.679C3.22989 110.319 2.37275 108.875 1.64877 107.363C0.718929 105.655 0.167743 103.768 0.0327004 101.828C-0.102343 99.8882 0.18192 97.9422 0.866167 96.1221C2.45509 92.2565 6.10724 92.5174 10.5657 94.8889C11.868 95.6049 13.127 96.3968 14.3364 97.2605C16.3759 98.6834 18.4866 100.391 20.621 102.217C21.7356 103.166 22.8265 104.162 23.9174 105.158C26.2889 107.387 28.6604 109.711 31.032 111.893C32.1703 112.984 33.2612 114.051 34.2335 115.047C36.0833 116.897 37.6485 118.462 38.858 119.553C39.4599 120.153 40.1192 120.693 40.8263 121.165C42.2492 121.948 43.7196 117.988 44.9765 112.391C45.5457 110.019 46.0437 107.387 46.518 104.707L47.3006 99.964C47.7986 96.6913 48.2255 93.5609 48.5575 90.9759C48.8184 89.1024 48.9844 87.5135 49.1267 86.4463L49.3164 84.7863L60.4388 86.6123Z" fill="white"/>
<path d="M66.3674 139.142H52.8734C52.8734 139.142 49.2924 135.323 46.5652 135.323C43.8379 135.323 30.2966 133.592 29.7748 135.323C29.2531 137.055 32.5495 145.924 33.5929 147.798C34.6364 149.671 52.8971 148.509 52.8734 148.556C52.8497 148.604 55.0552 146.683 55.0552 146.683L66.3674 147.537V139.142Z" fill="#B16668"/>
<path d="M86.2648 86.0668C94.9209 86.8257 112.731 125.434 107.798 142.604C104.336 154.628 58.1385 148.556 58.1385 148.556V137.671C58.1385 137.671 90.6284 136.983 93.8537 134.422C97.0789 131.861 91.4822 119.648 91.4822 119.648C89.1233 114.311 87.3116 108.749 86.0751 103.047C84.6443 97.4687 84.7098 91.6117 86.2648 86.0668Z" fill="black"/>
<path opacity="0.4" d="M86.2648 86.0668C94.9209 86.8257 112.731 125.434 107.798 142.604C104.336 154.628 58.1385 148.556 58.1385 148.556V137.671C58.1385 137.671 90.6284 136.983 93.8537 134.422C97.0789 131.861 91.4822 119.648 91.4822 119.648C89.1233 114.311 87.3116 108.749 86.0751 103.047C84.6443 97.4687 84.7098 91.6117 86.2648 86.0668Z" fill="white"/>
</svg>
