<svg id="wave" style="transform:rotate(180deg); transition: 0.3s" viewBox="0 0 1440 100" version="1.1" xmlns="http://www.w3.org/2000/svg" preserveAspectRatio="none" ><defs><linearGradient id="sw-gradient-0" x1="0" x2="0" y1="1" y2="0"><stop stop-color="rgba(43, 120, 72, 1)" offset="0%"></stop><stop stop-color="rgba(43, 120, 72, 1)" offset="100%"></stop></linearGradient></defs><path style="transform:translate(0, 0px); opacity:1" fill="url(#sw-gradient-0)" d="M0,80L48,66.7C96,53,192,27,288,25C384,23,480,47,576,46.7C672,47,768,23,864,13.3C960,3,1056,7,1152,10C1248,13,1344,17,1440,30C1536,43,1632,67,1728,76.7C1824,87,1920,83,2016,80C2112,77,2208,73,2304,60C2400,47,2496,23,2592,26.7C2688,30,2784,60,2880,60C2976,60,3072,30,3168,23.3C3264,17,3360,33,3456,36.7C3552,40,3648,30,3744,25C3840,20,3936,20,4032,23.3C4128,27,4224,33,4320,36.7C4416,40,4512,40,4608,38.3C4704,37,4800,33,4896,35C4992,37,5088,43,5184,45C5280,47,5376,43,5472,38.3C5568,33,5664,27,5760,35C5856,43,5952,67,6048,68.3C6144,70,6240,50,6336,40C6432,30,6528,30,6624,40C6720,50,6816,70,6864,80L6912,90L6912,100L6864,100C6816,100,6720,100,6624,100C6528,100,6432,100,6336,100C6240,100,6144,100,6048,100C5952,100,5856,100,5760,100C5664,100,5568,100,5472,100C5376,100,5280,100,5184,100C5088,100,4992,100,4896,100C4800,100,4704,100,4608,100C4512,100,4416,100,4320,100C4224,100,4128,100,4032,100C3936,100,3840,100,3744,100C3648,100,3552,100,3456,100C3360,100,3264,100,3168,100C3072,100,2976,100,2880,100C2784,100,2688,100,2592,100C2496,100,2400,100,2304,100C2208,100,2112,100,2016,100C1920,100,1824,100,1728,100C1632,100,1536,100,1440,100C1344,100,1248,100,1152,100C1056,100,960,100,864,100C768,100,672,100,576,100C480,100,384,100,288,100C192,100,96,100,48,100L0,100Z"></path></svg>
