<svg width="628" height="419" viewBox="0 0 628 419" fill="none" xmlns="http://www.w3.org/2000/svg">
<g clip-path="url(#clip0_1_813)">
<path opacity="0.1" d="M627.318 175.66C623.497 190.748 603.882 198.31 592.892 209.565C572.182 230.778 580.247 261.757 593.387 286.566C597.785 294.874 602.777 303.669 600.913 312.576C598.642 323.472 586.575 331.437 573.903 335.66C550.812 343.351 523.159 341.518 501.932 330.879C483.592 321.688 470.452 306.761 451.799 297.961C420.577 283.281 380.84 288.85 346.935 298.942C322.955 306.097 296.73 315.406 272.898 307.935C256.13 302.672 244.535 289.862 238.218 276.313C235.173 269.759 232.957 262.663 227.135 257.469C223.671 254.377 219.152 252.185 214.529 250.341C172.262 233.458 118.869 242.5 77.8394 223.773C50.12 211.13 32.3679 187.28 24.5117 162.406C16.6555 137.532 17.5681 111.453 19.5638 85.8337C20.9822 67.6111 23.5276 48.1987 37.9646 34.1459C53.2372 19.2837 79.4447 13.7794 103.14 16.5825C126.835 19.3856 148.303 29.4777 167.199 41.3331C190.839 56.1577 212.709 74.6108 241.698 80.6135C261.441 84.7029 282.206 82.4625 302.569 81.6854C336.611 80.3937 370.664 83.2933 404.513 86.4233C421.006 87.9615 437.554 89.5747 453.904 91.9115C457.569 92.4332 461.235 92.9959 464.9 93.5998C466.736 93.9053 468.572 94.2215 470.397 94.5484C471.827 94.8003 473.251 95.0844 474.675 95.3363C476.921 95.7615 479.161 96.2081 481.393 96.6762C487.803 98.0161 494.153 99.5328 500.437 101.259C522.285 107.267 539.8 118.179 560.433 125.8C573.881 130.769 588.543 132.141 601.276 138.465C616.944 146.231 631.337 159.796 627.318 175.66Z" fill="#2E8544"/>
<path d="M516.793 256.054C547.833 256.054 572.996 231.524 572.996 201.263C572.996 171.003 547.833 146.472 516.793 146.472C485.753 146.472 460.59 171.003 460.59 201.263C460.59 231.524 485.753 256.054 516.793 256.054Z" fill="#2E8544"/>
<path d="M457.022 241.085C488.062 241.085 513.225 216.554 513.225 186.294C513.225 156.034 488.062 131.503 457.022 131.503C425.981 131.503 400.819 156.034 400.819 186.294C400.819 216.554 425.981 241.085 457.022 241.085Z" fill="#2E8544"/>
<path d="M391.225 241.621C422.265 241.621 447.428 217.09 447.428 186.83C447.428 156.57 422.265 132.039 391.225 132.039C360.185 132.039 335.022 156.57 335.022 186.83C335.022 217.09 360.185 241.621 391.225 241.621Z" fill="#2E8544"/>
<path d="M369.839 256.054C400.879 256.054 426.042 231.524 426.042 201.263C426.042 171.003 400.879 146.472 369.839 146.472C338.799 146.472 313.636 171.003 313.636 201.263C313.636 231.524 338.799 256.054 369.839 256.054Z" fill="#2E8544"/>
<path d="M333.648 260.867C364.688 260.867 389.851 236.336 389.851 206.076C389.851 175.816 364.688 151.285 333.648 151.285C302.608 151.285 277.445 175.816 277.445 206.076C277.445 236.336 302.608 260.867 333.648 260.867Z" fill="#2E8544"/>
<path d="M318.842 217.567C349.882 217.567 375.045 193.036 375.045 162.776C375.045 132.516 349.882 107.985 318.842 107.985C287.802 107.985 262.639 132.516 262.639 162.776C262.639 193.036 287.802 217.567 318.842 217.567Z" fill="#2E8544"/>
<path d="M335.291 167.316C366.331 167.316 391.494 142.785 391.494 112.525C391.494 82.2642 366.331 57.7335 335.291 57.7335C304.251 57.7335 279.088 82.2642 279.088 112.525C279.088 142.785 304.251 167.316 335.291 167.316Z" fill="#2E8544"/>
<path d="M366.546 167.316C397.586 167.316 422.749 142.785 422.749 112.525C422.749 82.2642 397.586 57.7335 366.546 57.7335C335.506 57.7335 310.343 82.2642 310.343 112.525C310.343 142.785 335.506 167.316 366.546 167.316Z" fill="#2E8544"/>
<path d="M384.644 144.864C415.684 144.864 440.847 120.333 440.847 90.0732C440.847 59.8129 415.684 35.2821 384.644 35.2821C353.604 35.2821 328.441 59.8129 328.441 90.0732C328.441 120.333 353.604 144.864 384.644 144.864Z" fill="#2E8544"/>
<path d="M430.704 169.454C461.744 169.454 486.907 144.923 486.907 114.663C486.907 84.4029 461.744 59.8721 430.704 59.8721C399.664 59.8721 374.501 84.4029 374.501 114.663C374.501 144.923 399.664 169.454 430.704 169.454Z" fill="#2E8544"/>
<path d="M538.178 217.567C569.218 217.567 594.381 193.036 594.381 162.776C594.381 132.516 569.218 107.985 538.178 107.985C507.138 107.985 481.975 132.516 481.975 162.776C481.975 193.036 507.138 217.567 538.178 217.567Z" fill="#2E8544"/>
<path d="M505.824 190.303C536.864 190.303 562.027 165.772 562.027 135.512C562.027 105.252 536.864 80.7208 505.824 80.7208C474.784 80.7208 449.621 105.252 449.621 135.512C449.621 165.772 474.784 190.303 505.824 190.303Z" fill="#2E8544"/>
<path d="M484.988 163.039C516.029 163.039 541.191 138.508 541.191 108.247C541.191 77.9872 516.029 53.4564 484.988 53.4564C453.948 53.4564 428.786 77.9872 428.786 108.247C428.786 138.508 453.948 163.039 484.988 163.039Z" fill="#2E8544"/>
<path d="M445.509 121.877C476.549 121.877 501.712 97.3462 501.712 67.086C501.712 36.8257 476.549 12.2949 445.509 12.2949C414.469 12.2949 389.306 36.8257 389.306 67.086C389.306 97.3462 414.469 121.877 445.509 121.877Z" fill="#2E8544"/>
<path d="M518.986 167.316C550.026 167.316 575.189 142.785 575.189 112.525C575.189 82.2642 550.026 57.7335 518.986 57.7335C487.946 57.7335 462.783 82.2642 462.783 112.525C462.783 142.785 487.946 167.316 518.986 167.316Z" fill="#2E8544"/>
<g opacity="0.1">
<path opacity="0.1" d="M516.793 256.054C547.833 256.054 572.996 231.524 572.996 201.263C572.996 171.003 547.833 146.472 516.793 146.472C485.753 146.472 460.59 171.003 460.59 201.263C460.59 231.524 485.753 256.054 516.793 256.054Z" fill="black"/>
<path opacity="0.1" d="M457.022 241.085C488.062 241.085 513.225 216.554 513.225 186.294C513.225 156.034 488.062 131.503 457.022 131.503C425.982 131.503 400.819 156.034 400.819 186.294C400.819 216.554 425.982 241.085 457.022 241.085Z" fill="black"/>
<path opacity="0.1" d="M391.225 241.621C422.265 241.621 447.428 217.09 447.428 186.83C447.428 156.57 422.265 132.039 391.225 132.039C360.185 132.039 335.022 156.57 335.022 186.83C335.022 217.09 360.185 241.621 391.225 241.621Z" fill="black"/>
<path opacity="0.1" d="M369.839 256.054C400.879 256.054 426.042 231.524 426.042 201.263C426.042 171.003 400.879 146.472 369.839 146.472C338.799 146.472 313.636 171.003 313.636 201.263C313.636 231.524 338.799 256.054 369.839 256.054Z" fill="black"/>
<path opacity="0.1" d="M333.648 260.867C364.688 260.867 389.851 236.337 389.851 206.076C389.851 175.816 364.688 151.285 333.648 151.285C302.608 151.285 277.445 175.816 277.445 206.076C277.445 236.337 302.608 260.867 333.648 260.867Z" fill="black"/>
<path opacity="0.1" d="M318.842 217.567C349.883 217.567 375.045 193.036 375.045 162.776C375.045 132.516 349.883 107.985 318.842 107.985C287.802 107.985 262.639 132.516 262.639 162.776C262.639 193.036 287.802 217.567 318.842 217.567Z" fill="black"/>
<path opacity="0.1" d="M335.292 167.316C366.332 167.316 391.494 142.785 391.494 112.525C391.494 82.2644 366.332 57.7336 335.292 57.7336C304.251 57.7336 279.089 82.2644 279.089 112.525C279.089 142.785 304.251 167.316 335.292 167.316Z" fill="black"/>
<path opacity="0.1" d="M366.546 167.316C397.586 167.316 422.749 142.785 422.749 112.525C422.749 82.2644 397.586 57.7336 366.546 57.7336C335.506 57.7336 310.343 82.2644 310.343 112.525C310.343 142.785 335.506 167.316 366.546 167.316Z" fill="black"/>
<path opacity="0.1" d="M384.645 144.864C415.685 144.864 440.848 120.333 440.848 90.0731C440.848 59.8129 415.685 35.2821 384.645 35.2821C353.605 35.2821 328.442 59.8129 328.442 90.0731C328.442 120.333 353.605 144.864 384.645 144.864Z" fill="black"/>
<path opacity="0.1" d="M430.704 169.454C461.744 169.454 486.907 144.923 486.907 114.663C486.907 84.4029 461.744 59.8721 430.704 59.8721C399.664 59.8721 374.501 84.4029 374.501 114.663C374.501 144.923 399.664 169.454 430.704 169.454Z" fill="black"/>
<path opacity="0.1" d="M538.179 217.567C569.219 217.567 594.382 193.036 594.382 162.776C594.382 132.516 569.219 107.985 538.179 107.985C507.139 107.985 481.976 132.516 481.976 162.776C481.976 193.036 507.139 217.567 538.179 217.567Z" fill="black"/>
<path opacity="0.1" d="M505.825 190.303C536.865 190.303 562.028 165.772 562.028 135.512C562.028 105.252 536.865 80.7208 505.825 80.7208C474.784 80.7208 449.622 105.252 449.622 135.512C449.622 165.772 474.784 190.303 505.825 190.303Z" fill="black"/>
<path opacity="0.1" d="M484.989 163.039C516.029 163.039 541.192 138.508 541.192 108.248C541.192 77.9875 516.029 53.4567 484.989 53.4567C453.949 53.4567 428.786 77.9875 428.786 108.248C428.786 138.508 453.949 163.039 484.989 163.039Z" fill="black"/>
<path opacity="0.1" d="M445.51 121.877C476.55 121.877 501.713 97.3462 501.713 67.086C501.713 36.8257 476.55 12.2949 445.51 12.2949C414.47 12.2949 389.307 36.8257 389.307 67.086C389.307 97.3462 414.47 121.877 445.51 121.877Z" fill="black"/>
<path opacity="0.1" d="M518.986 167.316C550.026 167.316 575.189 142.785 575.189 112.525C575.189 82.2644 550.026 57.7336 518.986 57.7336C487.946 57.7336 462.783 82.2644 462.783 112.525C462.783 142.785 487.946 167.316 518.986 167.316Z" fill="black"/>
</g>
<path d="M489.035 297.28C489.035 297.28 523.395 269.126 506.396 229.037L489.398 222.83L470.953 278.189L489.035 297.28Z" fill="#67647E"/>
<path opacity="0.1" d="M490.865 220.922L494.934 222.407L476.824 276.758L492.625 293.437C491.316 294.707 490.503 295.372 490.503 295.372L472.415 276.281L490.865 220.922Z" fill="black"/>
<path opacity="0.1" d="M318.628 418.637C487.598 418.637 624.575 396.283 624.575 368.707C624.575 341.132 487.598 318.777 318.628 318.777C149.658 318.777 12.6808 341.132 12.6808 368.707C12.6808 396.283 149.658 418.637 318.628 418.637Z" fill="#2E8544"/>
<path d="M554.116 291.374C554.116 291.374 542.939 302.27 549.251 318.44C555.562 334.61 538.437 361.494 538.437 361.494L538.987 361.408C561.939 357.458 573.347 331.866 560.582 312.85C555.81 305.791 551.912 297.495 554.116 291.374Z" fill="#2E8544"/>
<path d="M554.116 291.374C554.116 291.374 547.805 304.73 554.116 315.626C560.427 326.522 555.216 357.099 538.431 361.494" stroke="#535461" stroke-width="1.04661" stroke-miterlimit="10"/>
<path d="M574.023 335.446C574.023 335.446 561.269 333.468 560.109 344.611C558.949 355.753 535.578 357.297 535.578 357.297L536.018 357.581C555.309 369.908 573.749 365.443 570.967 349.054C569.939 342.96 570.021 336.839 574.023 335.446Z" fill="#2E8544"/>
<path opacity="0.2" d="M574.023 335.446C574.023 335.446 561.269 333.468 560.109 344.611C558.949 355.753 535.578 357.297 535.578 357.297L536.018 357.581C555.309 369.908 573.749 365.443 570.967 349.054C569.939 342.96 570.021 336.839 574.023 335.446Z" fill="#F5F5F5"/>
<path d="M574.024 335.446C574.024 335.446 564.128 337.59 564.936 346.342C565.744 355.094 550.235 365.636 535.584 357.297" stroke="#535461" stroke-width="1.04661" stroke-miterlimit="10"/>
<path d="M333.856 238.641L338.321 256.06C338.321 256.06 369.861 260.069 390.89 257.55C394.607 257.035 398.176 255.78 401.374 253.862C403.15 252.838 405.953 252.394 409.785 255.191C416.35 260.015 448.566 298.604 443.349 338.64C442.944 341.657 441.53 344.459 439.327 346.614C437.124 348.769 434.253 350.156 431.16 350.56C424.736 351.413 418.594 353.679 413.199 357.184L397.256 367.534L560.73 364.05L543.759 344.021C543.759 344.021 532.148 334.444 523.214 333.57C520.608 333.318 518.458 330.987 516.721 327.819C506.545 309.248 494.373 291.787 481.178 275.113C471.568 262.968 463.503 250.169 464.257 242.13C466.043 222.97 464.257 191.621 464.257 191.621L430.314 187.269C430.314 187.269 434.778 229.074 393.688 239.52C352.598 249.966 333.856 238.641 333.856 238.641Z" fill="#67647E"/>
<g opacity="0.1">
<path opacity="0.1" d="M361.548 246.482C361.548 246.482 380.306 257.801 421.402 247.35C462.497 236.899 458.028 195.1 458.028 195.1L464.487 195.92C464.366 193.24 464.273 191.632 464.273 191.632L430.33 187.28C430.33 187.28 434.794 229.085 393.704 239.531C352.615 249.976 333.851 238.662 333.851 238.662L338.315 256.081C338.315 256.081 350.366 257.614 364.539 258.187L361.548 246.482Z" fill="black"/>
<path opacity="0.1" d="M440.891 365.02C446.286 361.514 452.428 359.249 458.852 358.395C461.938 357.996 464.804 356.617 467.006 354.471C469.208 352.325 470.624 349.533 471.035 346.524C476.28 306.488 444.047 267.829 437.499 263.027C430.352 257.801 426.779 263.895 426.779 263.895C424.249 264.542 421.678 265.02 419.082 265.326C430.66 280.333 447.225 309.119 443.349 338.683C442.937 341.691 441.521 344.484 439.319 346.63C437.117 348.776 434.252 350.155 431.166 350.554C424.741 351.408 418.6 353.673 413.205 357.179L397.261 367.528L438.362 366.655L440.891 365.02Z" fill="black"/>
</g>
<path d="M361.213 323.135C361.213 323.135 357.799 311.837 361.851 303.519C363.573 300.041 364.092 296.112 363.33 292.323C362.946 290.524 362.394 288.765 361.68 287.065" stroke="#535461" stroke-width="2.09321" stroke-miterlimit="10"/>
<path d="M364.231 281.807C364.231 283.19 361.659 287.209 361.659 287.209C361.659 287.209 359.102 283.19 359.102 281.807C359.102 281.142 359.373 280.504 359.856 280.033C360.338 279.563 360.993 279.299 361.675 279.299C362.357 279.299 363.012 279.563 363.494 280.033C363.977 280.504 364.248 281.142 364.248 281.807H364.231Z" fill="#2E8544"/>
<path d="M368.487 289.477C367.717 290.64 363.319 292.65 363.319 292.65C363.319 292.65 363.401 287.917 364.171 286.754C364.349 286.467 364.585 286.218 364.865 286.021C365.144 285.825 365.461 285.685 365.796 285.61C366.132 285.535 366.48 285.526 366.819 285.585C367.158 285.643 367.482 285.768 367.771 285.95C368.06 286.133 368.308 286.37 368.501 286.648C368.694 286.926 368.828 287.239 368.895 287.569C368.962 287.898 368.96 288.237 368.89 288.566C368.82 288.894 368.683 289.206 368.487 289.482V289.477Z" fill="#2E8544"/>
<path d="M368.299 302.575C367.029 303.197 362.197 302.768 362.197 302.768C362.197 302.768 364.715 298.722 365.985 298.1C366.287 297.952 366.615 297.863 366.952 297.839C367.289 297.815 367.628 297.855 367.949 297.959C368.27 298.062 368.566 298.226 368.822 298.441C369.078 298.656 369.288 298.918 369.44 299.212C369.592 299.506 369.683 299.827 369.708 300.156C369.733 300.484 369.691 300.814 369.585 301.127C369.479 301.44 369.311 301.729 369.091 301.979C368.87 302.228 368.601 302.433 368.299 302.581V302.575Z" fill="#2E8544"/>
<path d="M365.869 312.475C364.726 313.3 359.888 313.67 359.888 313.67C359.888 313.67 361.669 309.264 362.813 308.444C363.362 308.081 364.035 307.939 364.69 308.048C365.345 308.157 365.931 308.508 366.326 309.029C366.72 309.55 366.894 310.199 366.808 310.841C366.723 311.484 366.387 312.069 365.869 312.475Z" fill="#2E8544"/>
<path d="M357.915 292.928C358.932 293.893 363.682 294.895 363.682 294.895C363.682 294.895 362.522 290.297 361.483 289.332C360.989 288.891 360.339 288.655 359.67 288.674C359.001 288.693 358.366 288.965 357.899 289.433C357.433 289.901 357.172 290.528 357.172 291.181C357.171 291.833 357.432 292.46 357.898 292.928H357.915Z" fill="#2E8544"/>
<path d="M355.221 304.516C356.491 305.137 361.323 304.709 361.323 304.709C361.323 304.709 358.805 300.662 357.535 300.04C356.926 299.741 356.219 299.69 355.571 299.899C354.923 300.107 354.387 300.558 354.08 301.152C353.773 301.747 353.721 302.435 353.935 303.067C354.149 303.699 354.611 304.222 355.221 304.521V304.516Z" fill="#2E8544"/>
<path d="M354.187 316.141C355.33 316.966 360.168 317.336 360.168 317.336C360.168 317.336 358.387 312.93 357.244 312.11C356.694 311.747 356.021 311.605 355.367 311.714C354.712 311.823 354.126 312.174 353.731 312.695C353.336 313.216 353.163 313.865 353.248 314.507C353.333 315.15 353.669 315.735 354.187 316.141Z" fill="#2E8544"/>
<path d="M353.785 322.031C353.785 322.031 360.025 320.814 361.686 319.19C363.346 317.566 370.834 314.731 371.669 316.757C372.505 318.783 382.901 325.675 375.826 326.892C368.75 328.109 359.19 328.5 357.133 327.701C355.077 326.903 353.785 322.031 353.785 322.031Z" fill="#A8A8A8"/>
<path opacity="0.2" d="M375.832 326.158C368.762 327.374 359.196 327.766 357.139 326.967C355.556 326.351 354.457 323.381 354.022 322.004L353.813 322.047C353.813 322.047 355.061 326.913 357.139 327.723C359.218 328.532 368.784 328.13 375.832 326.913C377.871 326.56 378.454 325.74 378.234 324.694C378.058 325.359 377.349 325.884 375.832 326.158Z" fill="black"/>
<path d="M457.236 360.17C457.236 360.17 476.164 356.477 481.217 351.557C486.269 346.637 508.98 338.024 511.504 344.177C514.027 350.33 545.589 371.243 524.148 374.935C502.707 378.628 473.668 379.856 467.357 377.395C461.046 374.935 457.236 360.17 457.236 360.17Z" fill="#A8A8A8"/>
<path opacity="0.2" d="M524.126 372.647C502.685 376.339 473.647 377.567 467.335 375.107C462.53 373.231 459.188 364.227 457.868 360.041L457.236 360.17C457.236 360.17 461.024 374.935 467.33 377.395C473.636 379.855 502.669 378.628 524.121 374.935C530.317 373.863 532.087 371.366 531.416 368.204C530.894 370.267 528.734 371.859 524.126 372.647Z" fill="black"/>
<path d="M585.354 255.304C585.284 257.506 584.577 259.645 583.315 261.473C582.042 259.651 581.324 257.517 581.242 255.315C581.242 251.911 582.144 249.151 583.282 249.146C584.42 249.14 585.343 251.901 585.354 255.304Z" fill="#2E8544"/>
<path d="M430.16 252.313C430.084 254.515 429.371 256.652 428.104 258.477C426.836 256.652 426.123 254.515 426.047 252.313C426.047 248.91 426.965 246.15 428.104 246.15C429.242 246.15 430.16 248.91 430.16 252.313Z" fill="#2E8544"/>
<path d="M599.302 313.048C600.569 314.873 601.282 317.009 601.358 319.212C599.232 318.463 597.366 317.144 595.976 315.406C593.92 312.652 593.002 309.891 593.92 309.243C594.838 308.594 597.251 310.299 599.302 313.048Z" fill="#2E8544"/>
<path d="M533.626 280.778C533.55 282.98 532.838 285.117 531.57 286.942C530.303 285.117 529.59 282.98 529.514 280.778C529.514 277.375 530.432 274.615 531.57 274.615C532.708 274.615 533.626 277.385 533.626 280.778Z" fill="#2E8544"/>
<path d="M495.208 260.304C495.132 262.507 494.42 264.643 493.152 266.468C491.885 264.643 491.172 262.507 491.096 260.304C491.096 256.901 492.014 254.141 493.152 254.141C494.29 254.141 495.208 256.901 495.208 260.304Z" fill="#2E8544"/>
<path d="M471.376 272.787C472.433 274.735 472.904 276.935 472.734 279.133C470.696 278.167 468.981 276.658 467.786 274.781C466.049 271.828 465.444 268.987 466.428 268.435C467.412 267.883 469.644 269.834 471.376 272.787Z" fill="#2E8544"/>
<path d="M453.569 329.405C451.869 330.858 449.782 331.813 447.549 332.16C448.048 330.012 449.159 328.044 450.754 326.484C453.3 324.158 455.999 322.926 456.774 323.73C457.549 324.534 456.115 327.079 453.569 329.405Z" fill="#2E8544"/>
<path opacity="0.1" d="M453.569 329.405C451.869 330.858 449.782 331.813 447.549 332.16C448.048 330.012 449.159 328.044 450.754 326.484C453.3 324.158 455.999 322.926 456.774 323.73C457.549 324.534 456.115 327.079 453.569 329.405Z" fill="black"/>
<path d="M490.959 325.911C489.259 327.364 487.172 328.319 484.939 328.666C485.438 326.518 486.549 324.55 488.144 322.99C490.689 320.664 493.389 319.431 494.164 320.235C494.939 321.039 493.504 323.58 490.959 325.911Z" fill="#2E8544"/>
<path opacity="0.1" d="M490.959 325.911C489.259 327.364 487.172 328.319 484.939 328.666C485.438 326.518 486.549 324.55 488.144 322.99C490.689 320.664 493.389 319.431 494.164 320.235C494.939 321.039 493.504 323.58 490.959 325.911Z" fill="black"/>
<path d="M498.128 362.86C496.428 364.313 494.341 365.268 492.108 365.615C492.605 363.46 493.719 361.487 495.319 359.923C497.864 357.597 500.564 356.364 501.339 357.168C502.114 357.972 500.679 360.529 498.128 362.86Z" fill="#2E8544"/>
<path opacity="0.1" d="M498.128 362.86C496.428 364.313 494.341 365.268 492.108 365.615C492.605 363.46 493.719 361.487 495.319 359.923C497.864 357.597 500.564 356.364 501.339 357.168C502.114 357.972 500.679 360.529 498.128 362.86Z" fill="black"/>
<path d="M49.7746 303.792C58.2026 315.921 55.5142 359.344 55.5142 359.344C55.5142 359.344 13.1544 345.672 4.72644 333.548C0.679539 327.724 -0.828259 320.571 0.534749 313.663C1.89776 306.755 6.01992 300.657 11.9944 296.712C17.9689 292.767 25.3063 291.297 32.3925 292.626C39.4787 293.954 45.7332 297.973 49.7801 303.797L49.7746 303.792Z" fill="#2E8544"/>
<path opacity="0.1" d="M49.7746 303.792C58.2026 315.921 55.5142 359.344 55.5142 359.344C55.5142 359.344 13.1544 345.672 4.72644 333.548C0.679539 327.724 -0.828259 320.571 0.534749 313.663C1.89776 306.755 6.01992 300.657 11.9944 296.712C17.9689 292.767 25.3063 291.297 32.3925 292.626C39.4787 293.954 45.7332 297.973 49.7801 303.797L49.7746 303.792Z" fill="black"/>
<path d="M12.1528 296.739C12.1528 296.739 43.8965 320.632 55.6781 359.387" stroke="#535461" stroke-width="1.04661" stroke-miterlimit="10"/>
<path d="M63.672 326.463C63.672 326.463 41.1314 322.712 56.525 359.108C56.525 359.108 72.1879 353.288 73.4084 338.806C73.6506 335.989 72.8247 333.183 71.0871 330.919C69.3496 328.655 66.8209 327.091 63.9799 326.522L63.672 326.463Z" fill="#2E8544"/>
<path d="M64.002 326.426C64.002 326.426 68.2957 346.556 56.5471 359.119" stroke="#535461" stroke-width="1.04661" stroke-miterlimit="10"/>
<path d="M554.551 360.239C554.551 360.239 563.957 358.417 566.464 355.989C568.971 353.561 580.264 349.311 581.517 352.345C582.771 355.378 598.45 365.701 587.79 367.518C577.13 369.334 562.704 369.945 559.57 368.734C556.437 367.523 554.551 360.239 554.551 360.239Z" fill="#A8A8A8"/>
<path opacity="0.2" d="M587.806 366.398C577.146 368.22 562.72 368.826 559.586 367.614C557.2 366.687 555.54 362.255 554.88 360.18L554.567 360.245C554.567 360.245 556.447 367.529 559.586 368.745C562.726 369.962 577.146 369.351 587.806 367.529C590.885 366.993 591.764 365.771 591.435 364.206C591.154 365.219 590.082 366.006 587.806 366.398Z" fill="black"/>
<path d="M516.793 243.759C547.833 243.759 572.996 219.229 572.996 188.968C572.996 158.708 547.833 134.177 516.793 134.177C485.753 134.177 460.59 158.708 460.59 188.968C460.59 219.229 485.753 243.759 516.793 243.759Z" fill="#2E8544"/>
<path d="M457.022 228.79C488.062 228.79 513.225 204.259 513.225 173.999C513.225 143.739 488.062 119.208 457.022 119.208C425.981 119.208 400.819 143.739 400.819 173.999C400.819 204.259 425.981 228.79 457.022 228.79Z" fill="#2E8544"/>
<path d="M391.225 229.326C422.265 229.326 447.428 204.795 447.428 174.535C447.428 144.275 422.265 119.744 391.225 119.744C360.185 119.744 335.022 144.275 335.022 174.535C335.022 204.795 360.185 229.326 391.225 229.326Z" fill="#2E8544"/>
<path d="M369.839 243.759C400.879 243.759 426.042 219.229 426.042 188.968C426.042 158.708 400.879 134.177 369.839 134.177C338.799 134.177 313.636 158.708 313.636 188.968C313.636 219.229 338.799 243.759 369.839 243.759Z" fill="#2E8544"/>
<path d="M333.648 248.572C364.688 248.572 389.851 224.041 389.851 193.781C389.851 163.521 364.688 138.99 333.648 138.99C302.608 138.99 277.445 163.521 277.445 193.781C277.445 224.041 302.608 248.572 333.648 248.572Z" fill="#2E8544"/>
<path d="M318.842 205.272C349.882 205.272 375.045 180.741 375.045 150.481C375.045 120.221 349.882 95.6901 318.842 95.6901C287.802 95.6901 262.639 120.221 262.639 150.481C262.639 180.741 287.802 205.272 318.842 205.272Z" fill="#2E8544"/>
<path d="M335.291 155.021C366.331 155.021 391.494 130.49 391.494 100.23C391.494 69.9693 366.331 45.4385 335.291 45.4385C304.251 45.4385 279.088 69.9693 279.088 100.23C279.088 130.49 304.251 155.021 335.291 155.021Z" fill="#2E8544"/>
<path d="M366.546 155.021C397.586 155.021 422.749 130.49 422.749 100.23C422.749 69.9693 397.586 45.4385 366.546 45.4385C335.506 45.4385 310.343 69.9693 310.343 100.23C310.343 130.49 335.506 155.021 366.546 155.021Z" fill="#2E8544"/>
<path d="M384.644 132.569C415.684 132.569 440.847 108.039 440.847 77.7782C440.847 47.518 415.684 22.9872 384.644 22.9872C353.604 22.9872 328.441 47.518 328.441 77.7782C328.441 108.039 353.604 132.569 384.644 132.569Z" fill="#2E8544"/>
<path d="M430.704 157.159C461.744 157.159 486.907 132.628 486.907 102.368C486.907 72.1078 461.744 47.577 430.704 47.577C399.664 47.577 374.501 72.1078 374.501 102.368C374.501 132.628 399.664 157.159 430.704 157.159Z" fill="#2E8544"/>
<path d="M538.178 205.272C569.218 205.272 594.381 180.741 594.381 150.481C594.381 120.221 569.218 95.6901 538.178 95.6901C507.138 95.6901 481.975 120.221 481.975 150.481C481.975 180.741 507.138 205.272 538.178 205.272Z" fill="#2E8544"/>
<path d="M505.824 178.008C536.864 178.008 562.027 153.477 562.027 123.217C562.027 92.9566 536.864 68.4258 505.824 68.4258C474.784 68.4258 449.621 92.9566 449.621 123.217C449.621 153.477 474.784 178.008 505.824 178.008Z" fill="#2E8544"/>
<path d="M484.988 150.744C516.029 150.744 541.191 126.213 541.191 95.9527C541.191 65.6924 516.029 41.1616 484.988 41.1616C453.948 41.1616 428.786 65.6924 428.786 95.9527C428.786 126.213 453.948 150.744 484.988 150.744Z" fill="#2E8544"/>
<path d="M445.509 109.582C476.549 109.582 501.712 85.0513 501.712 54.7911C501.712 24.5308 476.549 0 445.509 0C414.469 0 389.306 24.5308 389.306 54.7911C389.306 85.0513 414.469 109.582 445.509 109.582Z" fill="#2E8544"/>
<path d="M518.986 155.021C550.026 155.021 575.189 130.49 575.189 100.23C575.189 69.9693 550.026 45.4385 518.986 45.4385C487.946 45.4385 462.783 69.9693 462.783 100.23C462.783 130.49 487.946 155.021 518.986 155.021Z" fill="#2E8544"/>
<path opacity="0.1" d="M572.748 108.81C572.748 108.81 520.405 84.6118 488.732 127.499L572.748 108.81Z" fill="black"/>
<path opacity="0.1" d="M435.261 59.7862C435.261 59.7862 377.36 58.0818 365.99 109.748L435.261 59.7862Z" fill="black"/>
<path opacity="0.1" d="M363.286 171.887C363.286 171.887 310.942 147.684 279.27 190.56L363.286 171.887Z" fill="black"/>
<path d="M134.202 308.471C134.202 308.471 137.22 312.319 132.805 318.118C128.391 323.917 124.751 328.837 126.208 332.461C126.208 332.461 132.866 321.666 138.303 321.516C143.74 321.366 140.161 314.961 134.202 308.471Z" fill="#2E8544"/>
<path opacity="0.1" d="M134.202 308.471C134.465 308.843 134.672 309.249 134.818 309.677C140.106 315.733 142.927 321.388 137.841 321.532C133.108 321.666 127.423 329.92 126.065 332.005C126.109 332.167 126.162 332.326 126.225 332.482C126.225 332.482 132.882 321.688 138.32 321.538C143.757 321.388 140.161 314.961 134.202 308.471Z" fill="black"/>
<path d="M139.815 313.38C139.815 314.736 139.661 315.835 139.468 315.835C139.276 315.835 139.122 314.763 139.122 313.38C139.122 311.998 139.315 312.662 139.507 312.662C139.699 312.662 139.815 312.024 139.815 313.38Z" fill="#FFD037"/>
<path d="M141.739 314.994C140.519 315.642 139.452 316.033 139.364 315.867C139.276 315.701 140.189 315.042 141.409 314.393C142.63 313.745 142.146 314.217 142.239 314.393C142.333 314.57 142.96 314.367 141.739 314.994Z" fill="#FFD037"/>
<path d="M118.247 308.471C118.247 308.471 115.229 312.319 119.644 318.118C124.058 323.917 127.698 328.837 126.241 332.461C126.241 332.461 119.583 321.666 114.146 321.516C108.709 321.366 112.282 314.961 118.247 308.471Z" fill="#2E8544"/>
<path opacity="0.1" d="M118.248 308.471C117.985 308.843 117.778 309.249 117.632 309.677C112.343 315.733 109.523 321.388 114.608 321.532C119.342 321.666 125.026 329.92 126.384 332.005C126.34 332.167 126.287 332.326 126.225 332.482C126.225 332.482 119.567 321.688 114.13 321.538C108.693 321.388 112.283 314.961 118.248 308.471Z" fill="black"/>
<path d="M112.635 313.38C112.635 314.736 112.789 315.835 112.981 315.835C113.173 315.835 113.327 314.763 113.327 313.38C113.327 311.998 113.135 312.662 112.942 312.662C112.75 312.662 112.635 312.024 112.635 313.38Z" fill="#FFD037"/>
<path d="M110.705 314.994C111.925 315.642 112.992 316.033 113.08 315.867C113.168 315.701 112.255 315.042 111.035 314.393C109.814 313.745 110.298 314.217 110.205 314.393C110.111 314.57 109.506 314.367 110.705 314.994Z" fill="#FFD037"/>
<path d="M113.596 331.973C113.596 331.973 122.041 331.721 124.592 329.952C127.143 328.184 137.583 326.077 138.21 328.907C138.836 331.737 150.898 342.997 141.365 343.072C131.832 343.147 119.215 341.625 116.675 340.114C114.135 338.603 113.596 331.973 113.596 331.973Z" fill="#A8A8A8"/>
<path opacity="0.2" d="M141.53 342.092C131.997 342.167 119.38 340.645 116.84 339.133C114.905 337.986 114.135 333.865 113.877 331.962H113.596C113.596 331.962 114.146 338.603 116.669 340.109C119.193 341.615 131.827 343.142 141.36 343.067C144.109 343.067 145.06 342.092 145.01 340.677C144.631 341.54 143.592 342.076 141.53 342.092Z" fill="black"/>
<path d="M65.7664 384.974C66.774 384.173 67.5083 383.093 67.872 381.876C68.1469 380.643 67.6081 379.169 66.3986 378.719C65.0462 378.215 63.6003 379.126 62.5063 380.054C61.4122 380.981 60.1533 382.031 58.7184 381.833C59.4558 381.181 60.0076 380.354 60.3197 379.433C60.6319 378.512 60.6939 377.527 60.4996 376.575C60.4376 376.181 60.2665 375.81 60.0048 375.503C59.2516 374.721 57.8937 375.058 56.9921 375.675C54.1333 377.636 53.3361 381.42 53.3196 384.829C53.0337 383.602 53.2756 382.321 53.2646 381.077C53.2536 379.834 52.9018 378.397 51.8132 377.744C51.1382 377.39 50.3802 377.215 49.6142 377.234C48.3277 377.186 46.8983 377.315 46.0187 378.231C44.9191 379.368 45.2105 381.281 46.1616 382.519C47.1127 383.757 48.5531 384.556 49.8835 385.424C50.9498 386.042 51.8594 386.886 52.5444 387.895C52.625 388.034 52.6913 388.182 52.7424 388.334H60.7965C62.601 387.438 64.2729 386.307 65.7664 384.974Z" fill="#2E8544"/>
<path d="M566.057 392.477C567.065 391.676 567.799 390.596 568.163 389.379C568.438 388.147 567.899 386.673 566.69 386.223C565.337 385.719 563.891 386.63 562.797 387.557C561.703 388.484 560.444 389.535 559.009 389.336C559.747 388.685 560.299 387.858 560.611 386.936C560.923 386.015 560.985 385.03 560.791 384.079C560.729 383.684 560.557 383.314 560.296 383.007C559.543 382.224 558.185 382.562 557.283 383.178C554.424 385.14 553.627 388.924 553.611 392.332C553.325 391.105 553.567 389.824 553.556 388.581C553.545 387.337 553.193 385.901 552.104 385.247C551.429 384.893 550.671 384.718 549.905 384.738C548.619 384.69 547.189 384.818 546.31 385.735C545.21 386.871 545.502 388.784 546.453 390.022C547.404 391.261 548.844 392.059 550.175 392.927C551.241 393.545 552.15 394.39 552.835 395.398C552.916 395.538 552.982 395.685 553.033 395.838H561.087C562.892 394.941 564.564 393.811 566.057 392.477Z" fill="#2E8544"/>
<path d="M378.657 389.572C378.657 389.572 378.107 397.965 379.207 399.359C379.207 399.359 353.962 403.834 350.806 402.435C347.65 401.036 349.085 398.801 350.806 397.96C352.527 397.119 361.136 394.042 362.28 388.173C362.28 388.173 358.552 386.496 370.598 388.709C382.643 390.923 378.657 389.572 378.657 389.572Z" fill="#DC9BA3"/>
<path opacity="0.05" d="M378.657 389.572C378.657 389.572 378.107 397.965 379.207 399.359C379.207 399.359 353.962 403.834 350.806 402.435C347.65 401.036 349.085 398.801 350.806 397.96C352.527 397.119 361.136 394.042 362.28 388.173C362.28 388.173 358.552 386.496 370.598 388.709C382.643 390.923 378.657 389.572 378.657 389.572Z" fill="black"/>
<path d="M477.06 308.182C477.06 308.182 473.905 313.214 475.911 323.006C477.918 332.798 470.749 332.793 470.749 332.793H456.411L451.535 320.466L458.418 321.002C458.418 321.002 463.008 319.882 461.002 309.532L477.06 308.182Z" fill="#FFD2D9"/>
<path d="M434.03 296.439C436.229 303.251 438.978 311.547 440.446 315.969L441.49 319.094L450.957 309.586C450.957 309.586 450.54 308.642 449.918 307.324C448.533 304.398 446.119 299.622 444.932 299.236C444.932 299.236 458.126 298.395 462.145 301.471C466.164 304.548 465.015 293.078 465.015 293.078C465.015 293.078 457.269 292.542 454.399 290.843C451.529 289.144 436.037 287.488 436.037 287.488C436.037 287.488 430.874 286.647 434.03 296.439Z" fill="#FFD2D9"/>
<path d="M347.958 378.682L349.965 392.944L355.127 392.408C355.127 392.408 355.44 392.118 355.968 391.657C357.359 390.462 360.256 388.12 363.027 386.834C363.965 386.367 364.982 386.071 366.029 385.96L360.289 377.567C358.893 378.077 357.462 378.491 356.007 378.805C354.495 379.152 352.947 379.332 351.394 379.341C350.214 379.358 349.043 379.134 347.958 378.682Z" fill="#FFD2D9"/>
<path d="M362.302 388.736C364.886 390.971 376.645 386.217 378.657 393.49L380.504 386.592L386.195 365.368L386.975 362.447L391.714 362.249L446.103 359.987L449.182 359.859L450.831 359.789L448.676 358.749L434.333 351.819C434.333 351.819 429.165 351.466 422.04 350.512C411.237 349.07 395.931 346.224 387.289 341.191C372.945 332.798 367.497 361.049 367.497 361.049C367.497 361.049 365.298 368.214 363.649 375.278C362.891 378.325 362.313 381.412 361.917 384.524C361.669 386.684 361.746 388.249 362.302 388.736Z" fill="#E9E9EF"/>
<path opacity="0.05" d="M362.302 388.736C364.885 390.971 376.645 386.217 378.657 393.49L380.504 386.592L386.195 365.368L386.975 362.447L391.863 362.153L444.41 359.001L447.653 358.803L448.654 358.744L449.946 358.664L434.31 351.809C434.31 351.809 429.143 351.455 422.018 350.501C411.215 349.059 395.909 346.213 387.267 341.181C372.923 332.788 367.475 361.038 367.475 361.038C367.475 361.038 365.276 368.204 363.627 375.268C362.869 378.315 362.291 381.402 361.895 384.513C361.669 386.683 361.746 388.248 362.302 388.736Z" fill="black"/>
<path opacity="0.1" d="M356.012 378.783L361.032 384.523L363.033 386.812C363.971 386.345 364.988 386.049 366.035 385.938L360.295 377.545C358.899 378.056 357.468 378.469 356.012 378.783Z" fill="black"/>
<path d="M356.282 378.108L361.895 384.54L364.6 387.632V388.474C367.899 389.219 378.229 387.096 380.505 386.608L380.95 386.512C387.547 386.791 411.935 372.808 411.935 372.808C411.935 372.808 438.615 377.283 451.519 376.163C458.726 375.536 460.749 372.995 461.129 370.867C461.295 369.816 461.146 368.74 460.7 367.77L449.155 359.864L447.626 358.792L445.185 357.115C445.185 357.115 440.941 356.177 435.553 355.019C427.131 353.208 415.91 350.855 413.639 350.689C409.912 350.41 400.445 353.486 394.991 359.639C394.055 360.599 392.999 361.44 391.847 362.142L391.698 362.238C390.164 363.23 388.279 364.28 386.2 365.358C379.257 368.922 369.999 372.754 363.632 375.268C359.278 376.999 356.282 378.108 356.282 378.108Z" fill="#E9E9EF"/>
<path opacity="0.1" d="M347.958 378.682L349.965 392.944L355.127 392.408C355.127 392.408 355.44 392.118 355.968 391.657C354.825 391.657 352.939 391.362 352.543 389.052C352.543 389.052 354.533 382.273 351.394 379.352C350.213 379.366 349.043 379.137 347.958 378.682Z" fill="black"/>
<path d="M351.955 389.015C351.955 389.015 354.825 379.228 348.227 378.108L337.325 382.305L324.681 383.146C324.681 383.146 321.382 388.393 326.665 394.278C328.118 395.873 329.887 397.166 331.865 398.078C333.844 398.989 335.991 399.502 338.177 399.584L351.955 400.2L356.281 391.545C356.281 391.545 352.549 392.37 351.955 389.015Z" fill="#DC9BA3"/>
<path opacity="0.1" d="M422.023 350.512C423.469 350.924 429.451 352.655 435.575 355.03C438.603 356.167 441.552 357.494 444.404 359.001C444.998 359.328 445.564 359.655 446.098 359.982C447.495 360.782 448.745 361.804 449.798 363.005C453.338 367.469 458.539 369.876 461.128 370.857C461.295 369.805 461.146 368.729 460.7 367.759L449.154 359.853L450.804 359.784L448.649 358.744L449.941 358.663L434.305 351.809C434.305 351.809 429.148 351.466 422.023 350.512Z" fill="black"/>
<path opacity="0.1" d="M440.468 315.974L441.513 319.099L450.98 309.591C450.98 309.591 450.562 308.648 449.941 307.329C448.715 309.79 443.003 314.109 440.468 315.974Z" fill="black"/>
<path d="M474.603 320.61C474.942 319.663 475.19 318.687 475.345 317.695L487.676 321.87C487.676 321.87 496.137 328.162 495.28 341.867C495.28 341.867 484.834 338.115 480.216 342.563L480.123 343.351C479.152 351.172 475.602 358.473 470.007 364.157C467.725 366.494 465.576 369.125 464.438 371.661C464.438 371.661 456.405 369.426 451.529 363.267C446.653 357.109 423.425 350.699 423.425 350.699C423.425 350.699 435.762 350.978 437.482 346.781C439.203 342.585 444.943 333.634 442.936 326.645C440.929 319.656 439.78 317.416 439.78 317.416C439.78 317.416 451.546 309.307 450.682 306.788L458.143 315.181L461.584 316.301C461.312 316.951 461.174 317.647 461.177 318.349C460.98 325.943 471.986 327.766 474.603 320.61Z" fill="#CEDAD5"/>
<path opacity="0.1" d="M461.431 313.257C461.344 312.212 461.199 311.173 460.997 310.143L477.061 308.744C477.061 308.744 475.961 309.682 475.466 313.177C473.581 314.249 471.382 315.739 469.029 315.739C466.286 315.742 463.618 314.87 461.431 313.257Z" fill="black"/>
<path d="M468.886 315.315C475.857 315.315 481.509 309.806 481.509 303.01C481.509 296.213 475.857 290.704 468.886 290.704C461.914 290.704 456.263 296.213 456.263 303.01C456.263 309.806 461.914 315.315 468.886 315.315Z" fill="#FFD2D9"/>
<path d="M478.209 306.225H476.489V301.471L474.768 296.439C474.768 296.439 466.158 292.521 462.123 293.362L458.989 296.144C458.989 296.144 458.126 289.434 463.294 286.915C468.462 284.396 477.638 285.516 479.936 287.451C482.234 289.386 485.983 292.768 483.091 301.997L482.25 304.269C482.25 304.269 478.781 303.149 478.209 306.225Z" fill="#844F6E"/>
<g opacity="0.05">
<path opacity="0.05" d="M455.911 312.684L454.971 312.378L450.639 307.506C450.724 307.275 450.733 307.025 450.666 306.788L455.911 312.684Z" fill="black"/>
<path opacity="0.05" d="M461.948 321.709C460.722 321.2 459.686 320.335 458.981 319.233C458.276 318.13 457.935 316.843 458.006 315.546C458.006 315.38 458.006 315.224 458.006 315.074L458.094 315.176L461.535 316.296C461.264 316.946 461.125 317.642 461.129 318.343C461.094 319.516 461.376 320.677 461.948 321.709Z" fill="black"/>
<path opacity="0.05" d="M428.483 350.469C435.674 352.907 445.411 356.75 448.374 360.486L448.594 360.754C440.716 355.485 423.414 350.694 423.414 350.694C425.107 350.712 426.799 350.637 428.483 350.469Z" fill="black"/>
<path opacity="0.05" d="M461.283 368.879C462.421 366.355 464.581 363.718 466.852 361.376C472.447 355.692 475.997 348.39 476.968 340.57L477.061 339.782C481.652 335.307 492.125 339.085 492.125 339.085C492.675 330.392 489.464 324.684 487.05 321.672L487.683 321.886C487.683 321.886 496.144 328.178 495.286 341.883C495.286 341.883 484.84 338.131 480.222 342.579L480.129 343.367C479.158 351.188 475.608 358.489 470.013 364.173C467.731 366.51 465.582 369.142 464.444 371.677C464.444 371.677 457.451 369.726 452.558 364.473C455.195 366.404 458.144 367.893 461.283 368.879Z" fill="black"/>
</g>
<path d="M464.438 336.154C464.438 336.154 478.182 355.448 485.379 361.043C492.575 366.639 494.56 358.524 494.56 358.524V340.629L481.915 339.23L481.778 340.929L481.624 342.869L469.859 330.542C469.859 330.542 458.094 320.193 455.801 326.345C453.509 332.498 464.438 336.154 464.438 336.154Z" fill="#FFD2D9"/>
<path opacity="0.1" d="M481.805 340.929C483.526 341.906 485.351 342.697 487.248 343.287C489.958 344.102 493.064 343.244 494.565 342.719V340.629L481.921 339.23L481.805 340.929Z" fill="black"/>
<path d="M494.708 338.812L495.445 341.808C495.445 341.808 490.959 343.844 487.232 342.729C484.718 341.899 482.318 340.772 480.085 339.374C479.535 339.096 482.377 336.019 482.377 336.019L494.708 338.812Z" fill="#CEDAD5"/>
<path opacity="0.1" d="M412.078 372.931C410.165 371.499 408.036 370.365 405.766 369.57C403.602 368.85 401.563 367.813 399.719 366.494" fill="black"/>
<path opacity="0.2" d="M324.719 383.141L325.186 383.109C324.505 384.797 323.537 388.924 327.561 393.431C329.01 395.021 330.773 396.31 332.744 397.221C334.716 398.132 336.855 398.645 339.035 398.732L352.395 399.343L351.966 400.2L338.177 399.584C335.998 399.498 333.858 398.984 331.887 398.073C329.915 397.162 328.153 395.873 326.704 394.283C321.42 388.388 324.719 383.141 324.719 383.141Z" fill="white"/>
<path opacity="0.05" d="M373.434 395.13C373.394 395.298 373.348 395.464 373.297 395.628C373.016 395.473 372.615 395.173 373.434 395.13Z" fill="#00FF00"/>
<path opacity="0.2" d="M350.855 401.599C353.797 402.902 375.908 399.107 378.894 398.582C378.954 398.86 379.07 399.124 379.234 399.359C379.234 399.359 353.989 403.834 350.833 402.435C349.184 401.717 348.805 400.774 349.025 399.916C349.206 400.517 349.723 401.112 350.855 401.599Z" fill="white"/>
<path opacity="0.1" d="M460.865 297.13C457.761 295.301 455.241 292.665 453.586 289.519C453.353 289.173 453.258 288.756 453.316 288.346C453.52 287.585 454.537 287.451 455.273 287.124C456.642 286.513 457.22 284.98 458.116 283.79C458.885 282.811 459.917 282.059 461.098 281.617C462.279 281.175 463.563 281.061 464.806 281.287C466.115 281.544 467.324 282.177 468.655 282.359C471.503 282.766 474.603 281.083 477.16 282.359C478.325 282.943 479.117 284.042 479.81 285.125C481.552 287.842 483.735 290.731 482.152 293.904C481.245 295.726 479.793 297.237 477.754 297.768C475.714 298.298 473.355 297.854 471.277 297.639C469.573 297.457 467.781 297.103 466.065 297.253C464.042 297.457 462.783 298.256 460.865 297.13Z" fill="black"/>
<path d="M460.865 296.567C457.761 294.738 455.241 292.103 453.586 288.957C453.353 288.61 453.258 288.193 453.316 287.783C453.52 287.022 454.537 286.888 455.273 286.561C456.642 285.95 457.22 284.417 458.116 283.228C458.885 282.248 459.917 281.496 461.098 281.054C462.279 280.612 463.563 280.498 464.806 280.725C466.115 280.982 467.324 281.614 468.655 281.796C471.503 282.204 474.603 280.521 477.16 281.796C478.325 282.381 479.117 283.479 479.81 284.562C481.552 287.279 483.735 290.168 482.152 293.341C481.245 295.163 479.793 296.675 477.754 297.205C475.714 297.736 473.355 297.291 471.277 297.077C469.573 296.894 467.781 296.541 466.065 296.691C464.042 296.894 462.783 297.698 460.865 296.567Z" fill="#844F6E"/>
<path d="M224.375 363.198C224.375 368.965 224.705 372.775 224.705 372.775C224.705 372.775 233.155 373.236 232.918 380.874C232.682 388.511 265.762 390.13 265.762 390.13C265.762 390.13 265.762 390.049 265.762 389.899C265.762 389.899 265.762 389.283 265.762 388.168C268.906 388.624 272.271 388.993 274.157 388.817C274.03 389.411 273.882 390.039 273.739 390.596C273.585 390.746 270.539 393.747 270.638 396.942C270.583 398.55 271.331 400.2 273.75 401.572C280.732 405.549 302.475 403.336 302.475 403.336C305.774 401.224 306.873 399.429 306.813 397.939C306.917 395.741 304.669 394.187 302.607 393.185C301.013 392.41 299.187 392.22 297.461 392.649C295.133 393.152 292.743 393.323 290.364 393.158C290.456 392.697 290.579 392.242 290.732 391.797C292.964 392.413 294.504 392.868 294.504 392.868C294.504 392.868 306.093 386.855 301.266 377.138C300.505 375.79 299.359 374.686 297.967 373.96C301.689 367.705 305.224 360.341 304.872 355.389C304.284 347.124 287.45 348.925 281.144 349.895L268.989 338.27C268.989 329.695 269.258 319.849 268.439 317.716C266.988 314.013 267.471 314.501 266.509 312.861L266.471 312.802C265.921 311.933 264.426 310.556 264.041 310.743C263.877 309.04 263.901 307.324 264.112 305.625C267.104 304.671 269.712 302.823 271.565 300.343C273.418 297.863 274.423 294.877 274.437 291.808C274.439 289.512 273.873 287.249 272.788 285.21L272.953 285.141L271.358 277.498C271.301 277.337 271.278 277.165 271.29 276.995C271.303 276.825 271.35 276.659 271.43 276.506C271.595 276.292 271.875 276.228 272.089 276.078C272.332 275.848 272.489 275.547 272.536 275.221C272.583 274.894 272.517 274.562 272.348 274.277C272.2 273.993 271.996 273.74 271.749 273.532C270.407 272.047 267.554 272.578 265.8 272.358C263.425 272.063 260.935 271.635 258.686 272.782C258.202 273.074 257.697 273.332 257.174 273.553C256.458 273.743 255.715 273.812 254.975 273.757C253.637 273.756 252.301 273.872 250.984 274.105C249.269 273.5 247.251 274.036 245.662 274.963C243.844 276.048 242.364 277.595 241.38 279.438C240.396 281.281 239.945 283.351 240.076 285.425C240.215 286.722 240.471 288.004 240.841 289.257L243.782 300.432C243.97 301.365 244.343 302.254 244.881 303.047C245.011 303.215 245.159 303.369 245.321 303.508C245.602 303.837 245.965 304.09 246.375 304.243C246.785 304.395 247.229 304.441 247.663 304.376C247.775 304.35 247.884 304.313 247.988 304.264C247.888 305.44 247.654 306.601 247.289 307.726C243.925 308.68 239.043 312.014 233.182 321.661C225.661 334.02 224.408 352.243 224.375 363.198Z" fill="url(#paint0_linear_1_813)"/>
<path d="M253.618 379.271H286.516V356.3H253.618V379.271Z" fill="#5F5D7E"/>
<path d="M278.352 351.294C278.352 351.294 302.85 346.288 303.548 356.3C304.246 366.312 289.083 386.314 289.083 386.314L275.339 383.586L279.303 368.118C279.303 368.118 263.673 364.704 262.738 364.479C261.804 364.254 278.352 351.294 278.352 351.294Z" fill="#5F5D7E"/>
<path opacity="0.1" d="M278.352 351.294C278.352 351.294 302.85 346.288 303.548 356.3C304.246 366.312 289.083 386.314 289.083 386.314L275.339 383.586L279.303 368.118C279.303 368.118 263.673 364.704 262.738 364.479C261.804 364.254 278.352 351.294 278.352 351.294Z" fill="black"/>
<path d="M291.189 389.052C291.189 389.052 288.858 393.372 289.539 395.194C290.221 397.017 272.975 392.692 272.975 392.692C272.975 392.692 274.377 387.461 274.14 386.796C273.904 386.131 291.189 389.052 291.189 389.052Z" fill="#5F5D7E"/>
<path d="M276.02 359.484L277.736 360.995L278.835 361.97C278.835 361.97 284.437 370.841 291.667 365.385C298.896 359.928 286.054 355.844 283.486 355.635C282.971 355.562 282.482 355.368 282.061 355.07C281.64 354.773 281.299 354.38 281.067 353.926C280.674 353.258 280.388 352.535 280.221 351.782L276.02 359.484Z" fill="#FDC2CC"/>
<path opacity="0.05" d="M276.02 359.484L277.736 360.995L278.835 361.97C278.835 361.97 284.437 370.841 291.667 365.385C298.896 359.928 286.054 355.844 283.486 355.635C282.971 355.562 282.482 355.368 282.061 355.07C281.64 354.773 281.299 354.38 281.067 353.926C280.674 353.258 280.388 352.535 280.221 351.782L276.02 359.484Z" fill="black"/>
<path opacity="0.1" d="M291.189 389.052C291.189 389.052 288.858 393.372 289.539 395.194C290.221 397.017 272.975 392.692 272.975 392.692C272.975 392.692 274.377 387.461 274.14 386.796C273.904 386.131 291.189 389.052 291.189 389.052Z" fill="black"/>
<path opacity="0.1" d="M276.02 359.484L277.736 360.995C277.736 358.079 279.72 355.4 281.078 353.894C280.685 353.226 280.399 352.503 280.232 351.75L276.02 359.484Z" fill="black"/>
<path d="M265.756 336.512L281.854 352.205C281.854 352.205 276.252 356.981 277.423 361.986L265.756 349.247V336.512Z" fill="#C4C8E2"/>
<path opacity="0.1" d="M265.872 336.512V349.252L267.741 351.294L273.288 357.35L277.538 361.992C276.373 356.986 281.969 352.211 281.969 352.211L265.872 336.512Z" fill="black"/>
<path d="M265.756 313.991C265.756 313.991 265.756 318.767 261.556 317.405C257.356 316.044 260.621 371.312 260.621 371.312C260.621 371.312 272.755 362.442 270.418 356.075C268.082 349.708 267.62 344.916 267.84 338.56C268.06 332.203 265.756 313.991 265.756 313.991Z" fill="#D39999"/>
<path d="M265.52 301.257C265.52 301.257 262.018 310.583 265.52 317.636C269.022 324.689 244.75 313.766 244.75 313.766C244.75 313.766 250.116 311.263 248.252 299.21L265.52 301.257Z" fill="#FDC2CC"/>
<path opacity="0.1" d="M267.62 343.791C267.476 346.29 267.476 348.795 267.62 351.294L273.167 357.35C272.355 355.659 271.437 354.017 270.418 352.436C269.555 351.133 269.363 345.94 269.319 340.012L267.285 338.029C267.499 341.229 267.62 343.791 267.62 343.791Z" fill="black"/>
<path d="M263.991 312.759C263.733 311.564 265.756 313.364 266.405 314.409L266.438 314.468C267.373 316.076 266.905 315.605 268.307 319.244C269.709 322.883 267.84 349.257 269.956 352.473C271.386 354.727 272.634 357.085 273.689 359.526L269.956 358.16C269.956 358.16 268.555 354.065 267.625 353.154C266.696 352.243 267.158 343.828 267.158 343.828C267.158 343.828 266.46 329.272 265.756 326.088C265.201 323.526 264.541 315.272 263.991 312.759Z" fill="#C4C8E2"/>
<path opacity="0.1" d="M263.991 312.759C263.733 311.564 265.756 313.364 266.405 314.409L266.438 314.468C267.373 316.076 266.905 315.605 268.307 319.244C269.709 322.883 267.84 349.257 269.956 352.473C271.386 354.727 272.634 357.085 273.689 359.526L269.956 358.16C269.956 358.16 268.555 354.065 267.625 353.154C266.696 352.243 267.158 343.828 267.158 343.828C267.158 343.828 266.46 329.272 265.756 326.088C265.201 323.526 264.541 315.272 263.991 312.759Z" fill="black"/>
<path d="M258.521 369.49C258.521 369.49 295.384 368.123 300.051 377.679C304.719 387.236 293.52 393.153 293.52 393.153C293.52 393.153 277.89 388.377 274.388 389.058C270.886 389.738 258.521 387.236 258.521 387.236V369.49Z" fill="#5F5D7E"/>
<path d="M279.055 363.578C279.055 363.578 287.456 359.028 292.123 361.971C296.791 364.913 296.324 372.888 289.792 373.113C283.261 373.338 279.759 369.474 279.759 369.474L279.055 363.578Z" fill="#FDC2CC"/>
<path d="M252.688 309.672C252.688 309.672 245.223 304.666 234.255 323.071C223.287 341.475 226.091 373.108 226.091 373.108C226.091 373.108 234.255 373.563 234.024 381.067C233.793 388.57 265.756 390.178 265.756 390.178C265.756 390.178 265.289 315.572 262.024 313.536C258.758 311.499 252.688 309.672 252.688 309.672Z" fill="#C4C8E2"/>
<path opacity="0.1" d="M252.656 323.242C253.972 324.167 255.044 325.385 255.782 326.794C256.52 328.203 256.903 329.764 256.9 331.346C256.938 338.158 257.109 352.838 257.818 355.614C258.752 359.253 272.75 364.029 279.985 363.803C279.985 363.803 283.487 370.171 279.286 371.537C275.086 372.904 249.423 371.537 249.423 371.537C249.423 371.537 239.39 360.395 239.159 350.635C238.928 340.875 237.509 329.936 239.159 327.889C240.506 326.158 246.141 318.761 252.656 323.242Z" fill="black"/>
<path d="M253.122 322.331C254.446 323.254 255.524 324.472 256.267 325.884C257.01 327.295 257.396 328.859 257.394 330.445C257.433 337.257 257.603 351.937 258.312 354.714C259.247 358.353 273.244 363.128 280.479 362.903C280.479 362.903 283.981 369.27 279.781 370.637C275.581 372.003 249.917 370.637 249.917 370.637C249.917 370.637 239.884 359.494 239.653 349.734C239.422 339.975 238.004 329.036 239.653 326.988C240.973 325.268 246.608 317.85 253.122 322.331Z" fill="#C4C8E2"/>
<path d="M301.349 393.426C304.697 395.034 308.578 398.346 301.222 403.379C301.222 403.379 280.226 405.651 273.459 401.556C266.691 397.462 273.459 390.864 273.459 390.864C273.459 390.864 288.946 394.878 296.379 392.917C298.043 392.49 299.811 392.671 301.349 393.426Z" fill="#4C4C56"/>
<path opacity="0.1" d="M301.349 393.887C304.697 395.441 308.578 398.593 301.222 403.411C301.222 403.411 280.226 405.587 273.459 401.669C266.691 397.751 273.459 391.443 273.459 391.443C273.459 391.443 288.946 395.28 296.379 393.41C298.042 392.998 299.8 393.167 301.349 393.887Z" fill="black"/>
<path opacity="0.1" d="M253.738 339.353C253.738 339.353 254.904 353.684 262.606 356.868L253.738 339.353Z" fill="black"/>
<path opacity="0.1" d="M265.289 302.849C264.608 304.821 264.146 306.858 263.909 308.927C262.436 309.409 260.281 308.198 258.637 308.198C254.36 308.198 253.139 303.535 250.473 300.694C250.473 299.429 248.274 302.382 248.021 300.807L265.289 302.849Z" fill="black"/>
<path d="M244.75 293.748C244.748 294.937 244.898 296.122 245.195 297.275L245.245 297.457C246.207 300.992 248.514 304.037 251.696 305.975C254.878 307.913 258.697 308.598 262.378 307.891C266.059 307.184 269.326 305.138 271.516 302.168C273.706 299.199 274.655 295.528 274.171 291.901C273.686 288.274 271.804 284.963 268.907 282.639C266.01 280.316 262.314 279.154 258.57 279.39C254.826 279.626 251.314 281.241 248.748 283.909C246.181 286.576 244.752 290.096 244.75 293.754V293.748Z" fill="#FDC2CC"/>
<path opacity="0.1" d="M234.26 323.317C235.784 320.7 237.529 318.212 239.477 315.878C237.911 317.886 236.48 319.991 235.195 322.181C224.227 340.607 227.031 372.218 227.031 372.218C227.031 372.218 235.195 372.674 234.964 380.177C234.755 386.914 260.479 388.886 265.751 389.219C265.751 389.99 265.751 390.408 265.751 390.408C265.751 390.408 233.787 388.801 234.018 381.297C234.249 373.794 226.085 373.338 226.085 373.338C226.085 373.338 223.309 341.743 234.26 323.317Z" fill="black"/>
<path opacity="0.1" d="M246.614 277.385C248.153 276.48 250.099 275.949 251.759 276.544C253.029 276.315 254.317 276.2 255.608 276.201C256.314 276.253 257.025 276.186 257.708 276.003C258.214 275.786 258.702 275.533 259.17 275.247C261.342 274.121 263.75 274.545 266.042 274.834C267.906 275.07 271.056 274.411 272.134 276.49C272.297 276.771 272.361 277.096 272.316 277.415C272.271 277.735 272.12 278.031 271.886 278.259C271.678 278.409 271.408 278.468 271.249 278.682C271.171 278.832 271.125 278.996 271.113 279.163C271.101 279.331 271.123 279.499 271.177 279.658L272.717 287.161C272.008 287.498 271.236 287.689 270.448 287.724C269.661 287.759 268.874 287.637 268.137 287.365C267.725 287.207 267.321 287.028 266.928 286.829C265.779 287.558 264.591 287.006 263.2 287.295C262.378 287.526 261.646 287.993 261.1 288.635C259.483 290.316 258.4 292.418 257.983 294.686C257.829 295.538 257.625 296.589 256.779 296.83C256.458 296.89 256.132 296.922 255.806 296.926C254.277 297.119 253.651 298.883 252.667 300.046C251.468 301.461 249.318 302.383 249.186 304.215C249.154 304.687 249.258 305.207 248.989 305.604C248.807 305.841 248.54 306.001 248.241 306.054C247.77 306.118 247.29 306.052 246.856 305.863C246.423 305.673 246.053 305.368 245.789 304.982C245.277 304.199 244.924 303.328 244.75 302.415L241.908 291.428C241.55 290.2 241.301 288.945 241.165 287.676C241.038 285.641 241.477 283.611 242.436 281.799C243.395 279.988 244.838 278.463 246.614 277.385Z" fill="black"/>
<path d="M246.399 277.182C247.939 276.276 249.885 275.745 251.545 276.34C252.814 276.111 254.103 275.997 255.393 275.997C256.1 276.049 256.81 275.982 257.494 275.799C257.999 275.582 258.488 275.33 258.956 275.043C261.128 273.918 263.536 274.341 265.828 274.631C267.692 274.866 270.842 274.207 271.92 276.287C272.082 276.567 272.146 276.892 272.102 277.212C272.057 277.531 271.906 277.827 271.672 278.055C271.463 278.205 271.194 278.264 271.034 278.479C270.957 278.629 270.911 278.792 270.899 278.959C270.886 279.127 270.908 279.295 270.963 279.454L272.502 286.958C271.794 287.294 271.022 287.486 270.234 287.521C269.447 287.556 268.66 287.433 267.923 287.161C267.51 287.003 267.107 286.824 266.713 286.625C265.564 287.354 264.377 286.802 262.986 287.092C262.163 287.322 261.431 287.789 260.886 288.431C259.268 290.112 258.186 292.214 257.769 294.482C257.615 295.335 257.411 296.385 256.565 296.626C256.244 296.686 255.918 296.719 255.591 296.723C254.063 296.916 253.436 298.679 252.452 299.842C251.254 301.257 249.104 302.179 248.972 304.012C248.939 304.483 249.044 305.003 248.774 305.4C248.593 305.637 248.325 305.798 248.027 305.85C247.556 305.915 247.076 305.848 246.642 305.659C246.208 305.469 245.838 305.164 245.575 304.778C245.062 303.995 244.71 303.124 244.536 302.211L241.693 291.224C241.335 289.996 241.087 288.741 240.951 287.472C240.823 285.437 241.262 283.407 242.222 281.595C243.181 279.784 244.624 278.259 246.399 277.182Z" fill="#865A61"/>
</g>
<defs>
<linearGradient id="paint0_linear_1_813" x1="306.808" y1="337.992" x2="224.375" y2="337.992" gradientUnits="userSpaceOnUse">
<stop stop-color="#808080" stop-opacity="0.25"/>
<stop offset="0.54" stop-color="#808080" stop-opacity="0.12"/>
<stop offset="1" stop-color="#808080" stop-opacity="0.1"/>
</linearGradient>
<clipPath id="clip0_1_813">
<rect width="627.964" height="418.643" fill="white" transform="translate(0.0361328)"/>
</clipPath>
</defs>
</svg>
