<svg width="41" height="42" viewBox="0 0 41 42" fill="none" xmlns="http://www.w3.org/2000/svg">
<path fill-rule="evenodd" clip-rule="evenodd" d="M0 21C0 9.40202 9.17816 0 20.5 0C31.8218 0 41 9.40202 41 21C41 32.598 31.8218 42 20.5 42C9.17816 42 0 32.598 0 21ZM20.4704 15.4187C22.1361 15.4187 23.2597 16.1568 23.9004 16.7736L26.4038 14.266C24.8663 12.7999 22.8655 11.9 20.4704 11.9C17.0011 11.9 14.0048 13.9424 12.5461 16.9151C11.9449 18.1487 11.5999 19.5339 11.5999 21C11.5999 22.4661 11.9449 23.8513 12.5461 25.0849L15.4241 22.7998L12.5559 25.0849C14.0147 28.0576 17.0011 30.1 20.4704 30.1C22.8655 30.1 24.8761 29.2911 26.3447 27.8958C28.0202 26.3083 28.9861 23.9727 28.9861 21.2022C28.9861 20.454 28.927 19.908 28.7988 19.3418H20.4704V22.7189H25.3591C25.2605 23.5581 24.7283 24.822 23.5455 25.6713C22.7965 26.2072 21.7911 26.5813 20.4704 26.5813C18.1247 26.5813 16.1337 24.9939 15.4241 22.7998C15.2368 22.2336 15.1284 21.6269 15.1284 21C15.1284 20.3731 15.2368 19.7664 15.4142 19.2002C16.1337 17.0061 18.1247 15.4187 20.4704 15.4187Z" fill="#1E2E5C"/>
</svg>
