<svg width="41" height="42" viewBox="0 0 41 42" fill="none" xmlns="http://www.w3.org/2000/svg">
<path fill-rule="evenodd" clip-rule="evenodd" d="M20.5 0C9.17816 0 0 9.40202 0 21C0 32.598 9.17816 42 20.5 42C31.8218 42 41 32.598 41 21C41 9.40202 31.8218 0 20.5 0ZM15.9928 9.86767C17.159 9.8133 17.5317 9.8 20.501 9.8H20.4976C23.4679 9.8 23.8391 9.8133 25.0054 9.86767C26.1693 9.92227 26.9643 10.111 27.6613 10.388C28.3811 10.6738 28.9893 11.0565 29.5974 11.6795C30.2056 12.3021 30.5792 12.9269 30.8593 13.6636C31.1281 14.3757 31.3126 15.1896 31.3673 16.3819C31.4197 17.5766 31.4333 17.9584 31.4333 21.0001C31.4333 24.0419 31.4197 24.4227 31.3673 25.6174C31.3126 26.8092 31.1281 27.6234 30.8593 28.3357C30.5792 29.0721 30.2056 29.697 29.5974 30.3195C28.9899 30.9426 28.3809 31.3262 27.662 31.6122C26.9663 31.8892 26.1709 32.078 25.007 32.1326C23.8407 32.1869 23.4692 32.2002 20.4997 32.2002C17.5305 32.2002 17.1581 32.1869 15.9919 32.1326C14.8282 32.078 14.0334 31.8892 13.3378 31.6122C12.6191 31.3262 12.0092 30.9426 11.4017 30.3195C10.7937 29.697 10.4202 29.0721 10.1407 28.3355C9.87053 27.6234 9.68625 26.8095 9.63272 25.6171C9.57988 24.4225 9.56667 24.0419 9.56667 21.0001C9.56667 17.9584 9.58033 17.5764 9.63249 16.3817C9.68488 15.1898 9.86939 14.3757 10.1404 13.6633C10.4206 12.9269 10.7942 12.3021 11.4023 11.6795C12.0101 11.0567 12.6201 10.6741 13.3392 10.388C14.0343 10.111 14.8288 9.92227 15.9928 9.86767Z" fill="#1E2E5C"/>
<path fill-rule="evenodd" clip-rule="evenodd" d="M19.5202 11.8184C19.7106 11.818 19.9155 11.8181 20.1366 11.8182L20.501 11.8184C23.4203 11.8184 23.7662 11.8291 24.919 11.8828C25.9851 11.9327 26.5636 12.1152 26.949 12.2685C27.4592 12.4715 27.823 12.7141 28.2055 13.1061C28.5881 13.4981 28.825 13.8715 29.0236 14.3941C29.1733 14.7885 29.3516 15.3812 29.4002 16.4732C29.4526 17.6538 29.4639 18.0085 29.4639 20.9975C29.4639 23.9866 29.4526 24.3412 29.4002 25.5219C29.3514 26.6139 29.1733 27.2066 29.0236 27.601C28.8255 28.1236 28.5881 28.4958 28.2055 28.8876C27.8228 29.2796 27.4595 29.5222 26.949 29.7252C26.5641 29.8792 25.9851 30.0612 24.919 30.1112C23.7665 30.1648 23.4203 30.1765 20.501 30.1765C17.5816 30.1765 17.2356 30.1648 16.083 30.1112C15.017 30.0608 14.4384 29.8783 14.0528 29.725C13.5426 29.522 13.1781 29.2793 12.7954 28.8873C12.4128 28.4953 12.1759 28.1229 11.9773 27.6C11.8276 27.2057 11.6493 26.613 11.6007 25.521C11.5484 24.3403 11.5379 23.9856 11.5379 20.9947C11.5379 18.0038 11.5484 17.651 11.6007 16.4704C11.6495 15.3784 11.8276 14.7857 11.9773 14.3909C12.1754 13.8682 12.4128 13.4949 12.7954 13.1029C13.1781 12.7109 13.5426 12.4682 14.0528 12.2647C14.4382 12.1107 15.017 11.9287 16.083 11.8786C17.0916 11.8319 17.4825 11.8179 19.5202 11.8156V11.8184ZM26.3372 13.678C25.6129 13.678 25.0252 14.2793 25.0252 15.0216C25.0252 15.7636 25.6129 16.3656 26.3372 16.3656C27.0615 16.3656 27.6492 15.7636 27.6492 15.0216C27.6492 14.2796 27.0615 13.6776 26.3372 13.6776V13.678ZM14.8862 21.0001C14.8862 17.8238 17.4001 15.2485 20.5008 15.2484C23.6016 15.2484 26.1149 17.8237 26.1149 21.0001C26.1149 24.1765 23.6018 26.7507 20.501 26.7507C17.4002 26.7507 14.8862 24.1765 14.8862 21.0001Z" fill="#1E2E5C"/>
<path d="M20.501 17.2667C22.5137 17.2667 24.1455 18.9381 24.1455 21.0001C24.1455 23.0619 22.5137 24.7335 20.501 24.7335C18.4881 24.7335 16.8565 23.0619 16.8565 21.0001C16.8565 18.9381 18.4881 17.2667 20.501 17.2667Z" fill="#1E2E5C"/>
</svg>
