<svg width="41" height="42" viewBox="0 0 41 42" fill="none" xmlns="http://www.w3.org/2000/svg">
<path fill-rule="evenodd" clip-rule="evenodd" d="M0 21C0 32.598 9.17816 42 20.5 42C31.8218 42 41 32.598 41 21C41 9.40202 31.8218 0 20.5 0C9.17816 0 0 9.40202 0 21ZM31.0451 21.1162C31.0451 21.8926 30.9628 22.6482 30.8046 23.3779C31.2071 24.1958 31.4333 25.1163 31.4333 26.0914C31.4333 29.4644 28.7257 32.2 25.3855 32.2C24.3506 32.2 23.3786 31.9364 22.5262 31.4742C21.9065 31.5898 21.2688 31.6508 20.6157 31.6508C14.8559 31.6508 10.1864 26.9353 10.1864 21.1162C10.1864 20.3917 10.2596 19.6828 10.3972 18.9999C9.87008 18.0911 9.56667 17.0369 9.56667 15.9099C9.56667 12.5343 12.2743 9.8 15.6157 9.8C16.7973 9.8 17.9004 10.1441 18.8325 10.7374C19.4136 10.6361 20.0089 10.5829 20.6157 10.5829C26.3768 10.5829 31.0451 15.2997 31.0451 21.1162Z" fill="#1E2E5C"/>
<path d="M25.9654 26.1511C25.4833 26.8418 24.771 27.3871 23.8453 27.774C22.9312 28.1583 21.8358 28.3543 20.5874 28.3543C19.0896 28.3543 17.8335 28.0882 16.8526 27.5623C16.1519 27.1806 15.5746 26.6639 15.1362 26.0225C14.6926 25.3786 14.4689 24.7385 14.4689 24.1192C14.4689 23.7349 14.6155 23.3999 14.9035 23.126C15.1889 22.8533 15.5553 22.717 15.9925 22.717C16.3499 22.717 16.6597 22.8248 16.9104 23.039C17.1508 23.2454 17.3565 23.5505 17.5224 23.9413C17.7075 24.3698 17.9081 24.7307 18.1202 25.0124C18.3259 25.2877 18.6204 25.5175 18.9958 25.698C19.3738 25.8771 19.8842 25.9706 20.5103 25.9706C21.373 25.9706 22.0801 25.7836 22.6111 25.4175C23.1318 25.0605 23.3838 24.6294 23.3838 24.1023C23.3838 23.6881 23.2513 23.361 22.9814 23.1039C22.6959 22.8364 22.3218 22.6287 21.868 22.4833C21.3935 22.3353 20.7507 22.173 19.9549 22.0042C18.8711 21.7705 17.9518 21.494 17.2216 21.1785C16.4733 20.8578 15.8703 20.4125 15.4293 19.8555C14.9819 19.2881 14.7544 18.5779 14.7544 17.7431C14.7544 16.9485 14.9922 16.2306 15.4628 15.6126C15.9282 14.9985 16.6096 14.5181 17.4877 14.1922C18.3529 13.8689 19.3815 13.7053 20.5476 13.7053C21.4784 13.7053 22.2974 13.8144 22.9814 14.0299C23.6692 14.2454 24.2477 14.5363 24.7029 14.8959C25.1618 15.2594 25.5038 15.645 25.7173 16.0475C25.9332 16.4539 26.0438 16.8577 26.0438 17.2485C26.0438 17.625 25.8998 17.9677 25.6157 18.265C25.3303 18.5663 24.969 18.7182 24.5447 18.7182C24.159 18.7182 23.8556 18.6221 23.6473 18.4351C23.4519 18.2598 23.2488 17.9872 23.0238 17.5977C22.7641 17.0991 22.4491 16.7058 22.0878 16.4279C21.7368 16.1579 21.1518 16.0228 20.3457 16.0228C19.6 16.0228 18.9906 16.1734 18.5394 16.4734C18.1048 16.7603 17.8927 17.0914 17.8927 17.4834C17.8927 17.7223 17.9608 17.9236 18.1022 18.095C18.2488 18.2793 18.4584 18.4377 18.7232 18.5727C18.9971 18.7117 19.2799 18.8233 19.5628 18.9012C19.852 18.983 20.338 19.1038 21.0053 19.2596C21.85 19.4413 22.6252 19.6478 23.3105 19.8698C24.006 20.0931 24.6052 20.3683 25.0963 20.6916C25.5951 21.0201 25.9898 21.4407 26.2714 21.9445C26.5529 22.4521 26.6957 23.0753 26.6957 23.8011C26.6957 24.6684 26.4488 25.4591 25.9654 26.1511Z" fill="#1E2E5C"/>
</svg>
