<svg id="wave" style="transform:rotate(0deg); transition: 0.3s" viewBox="0 0 1440 100" version="1.1" xmlns="http://www.w3.org/2000/svg"><defs><linearGradient id="sw-gradient-0" x1="0" x2="0" y1="1" y2="0"><stop stop-color="rgba(243, 106, 62, 1)" offset="0%"></stop><stop stop-color="rgba(255, 179, 11, 1)" offset="100%"></stop></linearGradient></defs><path style="transform:translate(0, 0px); opacity:1" fill="url(#sw-gradient-0)" d="M0,40L48,48.3C96,57,192,73,288,71.7C384,70,480,50,576,38.3C672,27,768,23,864,30C960,37,1056,53,1152,55C1248,57,1344,43,1440,40C1536,37,1632,43,1728,40C1824,37,1920,23,2016,20C2112,17,2208,23,2304,26.7C2400,30,2496,30,2592,25C2688,20,2784,10,2880,5C2976,0,3072,0,3168,8.3C3264,17,3360,33,3456,48.3C3552,63,3648,77,3744,68.3C3840,60,3936,30,4032,30C4128,30,4224,60,4320,75C4416,90,4512,90,4608,78.3C4704,67,4800,43,4896,33.3C4992,23,5088,27,5184,33.3C5280,40,5376,50,5472,60C5568,70,5664,80,5760,70C5856,60,5952,30,6048,20C6144,10,6240,20,6336,20C6432,20,6528,10,6624,20C6720,30,6816,60,6864,75L6912,90L6912,100L6864,100C6816,100,6720,100,6624,100C6528,100,6432,100,6336,100C6240,100,6144,100,6048,100C5952,100,5856,100,5760,100C5664,100,5568,100,5472,100C5376,100,5280,100,5184,100C5088,100,4992,100,4896,100C4800,100,4704,100,4608,100C4512,100,4416,100,4320,100C4224,100,4128,100,4032,100C3936,100,3840,100,3744,100C3648,100,3552,100,3456,100C3360,100,3264,100,3168,100C3072,100,2976,100,2880,100C2784,100,2688,100,2592,100C2496,100,2400,100,2304,100C2208,100,2112,100,2016,100C1920,100,1824,100,1728,100C1632,100,1536,100,1440,100C1344,100,1248,100,1152,100C1056,100,960,100,864,100C768,100,672,100,576,100C480,100,384,100,288,100C192,100,96,100,48,100L0,100Z"></path></svg>