<svg width="42" height="42" viewBox="0 0 42 42" fill="none" xmlns="http://www.w3.org/2000/svg">
<path fill-rule="evenodd" clip-rule="evenodd" d="M21 42C32.598 42 42 32.598 42 21C42 9.40202 32.598 0 21 0C9.40202 0 0 9.40202 0 21C0 32.598 9.40202 42 21 42ZM30.09 16.38C30.09 22.75 25.24 30.1 16.37 30.1C13.65 30.1 11.11 29.3 9 27.92C9.38 27.97 9.76 27.99 10.15 27.99C12.41 27.99 14.49 27.22 16.14 25.93C14.03 25.89 12.25 24.5 11.64 22.58C11.94 22.64 12.24 22.67 12.55 22.67C12.99 22.67 13.42 22.61 13.82 22.5C11.61 22.05 9.95 20.11 9.95 17.77V17.71C10.6 18.07 11.34 18.29 12.13 18.31C10.83 17.45 9.98 15.97 9.98 14.3C9.98 13.42 10.22 12.59 10.63 11.88C13.01 14.8 16.56 16.72 20.57 16.92C20.48 16.57 20.44 16.2 20.44 15.82C20.44 13.16 22.6 11 25.26 11C26.65 11 27.9 11.58 28.78 12.52C29.88 12.3 30.91 11.9 31.84 11.35C31.48 12.48 30.72 13.42 29.72 14.02C30.7 13.9 31.63 13.64 32.49 13.26C31.84 14.23 31.02 15.08 30.08 15.76C30.09 15.96 30.09 16.17 30.09 16.38Z" fill="#1E2E5C"/>
</svg>
