<svg 
  id="wave" 
  viewBox="0 0 1440 100" 
  version="1.1" 
  xmlns="http://www.w3.org/2000/svg"
  preserveAspectRatio="none"
>
  <defs>
    <linearGradient id="sw-gradient-0" x1="0" x2="0" y1="1" y2="0" >
      <stop stop-color="rgba(43, 120, 72, 1)" offset="0%"></stop>
    </linearGradient>
  </defs>
  <path 
    fill="url(#sw-gradient-0)" 
    d="M0,80L60,68.3C120,57,240,33,360,30C480,27,600,43,720,50C840,57,960,53,1080,43.3C1200,33,1320,17,1440,15C1560,13,1680,27,1800,38.3C1920,50,2040,60,2160,66.7C2280,73,2400,77,2520,78.3C2640,80,2760,80,2880,75C3000,70,3120,60,3240,51.7C3360,43,3480,37,3600,41.7C3720,47,3840,63,3960,71.7C4080,80,4200,80,4320,76.7C4440,73,4560,67,4680,68.3C4800,70,4920,80,5040,71.7C5160,63,5280,37,5400,23.3C5520,10,5640,10,5760,18.3C5880,27,6000,43,6120,51.7C6240,60,6360,60,6480,65C6600,70,6720,80,6840,81.7C6960,83,7080,77,7200,71.7C7320,67,7440,63,7560,56.7C7680,50,7800,40,7920,41.7C8040,43,8160,57,8280,58.3C8400,60,8520,50,8580,45L8640,40L8640,100L8580,100C8520,100,8400,100,8280,100C8160,100,8040,100,7920,100C7800,100,7680,100,7560,100C7440,100,7320,100,7200,100C7080,100,6960,100,6840,100C6720,100,6600,100,6480,100C6360,100,6240,100,6120,100C6000,100,5880,100,5760,100C5640,100,5520,100,5400,100C5280,100,5160,100,5040,100C4920,100,4800,100,4680,100C4560,100,4440,100,4320,100C4200,100,4080,100,3960,100C3840,100,3720,100,3600,100C3480,100,3360,100,3240,100C3120,100,3000,100,2880,100C2760,100,2640,100,2520,100C2400,100,2280,100,2160,100C2040,100,1920,100,1800,100C1680,100,1560,100,1440,100C1320,100,1200,100,1080,100C960,100,840,100,720,100C600,100,480,100,360,100C240,100,120,100,60,100L0,100Z">
  </path>
</svg>